<?xml version="1.0" encoding="utf-8"?><!DOCTYPE svg PUBLIC "-//W3C//DTD SVG 1.1//EN" "http://www.w3.org/Graphics/SVG/1.1/DTD/svg11.dtd"><svg version="1.1" xmlns="http://www.w3.org/2000/svg" xmlns:ss="http://ns.smallsketch.app/SmallSketch/1.0" x="0.0mm" y="0.0mm" width="27.478256mm" height="28.671295mm"  viewBox="0.0 0.0 27.478256 28.671295"><ss:strokes><ss:stroke color="rgb(8, 8, 8)" strokewidth="0.254">1.557373,1.735672,1.5761261,1.735672,1.6136627,1.7169037,1.6324158,1.7169037,1.6511841,1.7169037,1.7262421,1.7169037,1.8294373,1.7169037,1.979538,1.6699982,2.2046967,1.5949402,2.5142975,1.510498,2.8614197,1.4354401,3.2460785,1.3697815,3.6588593,1.3322296,4.127945,1.2947235,4.6627045,1.2196655,5.4976807,1.0789337,5.9761505,0.9944916,6.4733734,0.91004944,6.998749,0.8350067,7.5428925,0.7505646,8.077652,0.7036438,8.527969,0.6755066,9.015808,0.6473541,9.569336,0.5723114,10.11348,0.4784851,10.63884,0.41281128,11.070404,0.39404297,11.501968,0.39404297,11.971054,0.39404297,12.487045,0.39404297,13.040558,0.35650635,13.575317,0.29083252,14.063156,0.25331116,14.438431,0.19702148,14.832474,0.15948486,15.226501,0.112594604,15.658051,0.10319519,16.08023,0.10319519,16.502396,0.07505798,16.887054,0.03753662,17.252945,0.0,17.609451,0.0,17.965942,0.0,18.331833,0.01876831,18.716476,0.03753662,19.082382,0.07505798,19.42012,0.07505798,19.748474,0.07505798,19.973633,0.07505798,20.170654,0.06567383,20.264465,0.06567383,20.377045,0.06567383,20.508377,0.10319519,20.58345,0.12197876,20.574066,0.16886902,20.574066,0.16886902</ss:stroke><ss:stroke color="rgb(8, 8, 8)" strokewidth="0.254">2.0076904,1.8013458,2.0076904,1.8013458,1.979538,1.8013458,1.9420166,1.8201141,1.8951111,1.9139252,1.8200531,2.0827942,1.735611,2.2516785,1.6417999,2.4956055,1.5479889,2.8239746,1.4354095,3.1429596,1.2946777,3.4619446,1.1914825,3.7997131,1.0976715,4.174988,1.0132294,4.587784,0.9381714,5.0287323,0.8631134,5.488449,0.82559204,5.9575653,0.7786865,6.4454193,0.72239685,6.961426,0.6848602,7.4774475,0.64733887,7.9934387,0.61920166,8.500061,0.5910492,8.98793,0.5722809,9.466415,0.5347595,9.963654,0.49723816,10.5078125,0.4690857,11.06134,0.4409485,11.586746,0.40342712,12.065216,0.35650635,12.478027,0.32836914,12.890839,0.30960083,13.35054,0.27207947,13.810257,0.23454285,14.30751,0.21577454,14.795364,0.19702148,15.264465,0.18763733,15.733566,0.15950012,16.221436,0.1219635,16.74681,0.06567383,17.262833,0.01876831,17.750687,0.0,18.219788,0.0,18.698273,0.0,19.20491,0.0,19.711517,0.0,20.218155,0.0,20.68724,0.0,21.109436,0.0,21.494095,0.03753662,21.850616,0.056289673,22.216507,0.07505798,22.55426,0.112579346,22.891998,0.16886902,23.220383,0.22515869,23.5206,0.2626953,23.820816,0.318985,24.10228,0.35650635,24.327454,0.39404297,24.524475,0.43156433,24.740265,0.487854,24.974808,0.562912,25.218735,0.656723,25.42514,0.74116516,25.612778,0.82559204,25.819183,0.90065,26.034973,0.9569397,26.250748,1.0413666,26.44777,1.144577,26.597885,1.2571564,26.729233,1.3697357,26.888718,1.5198364,27.038834,1.6511841,27.160797,1.8012848,27.301544,1.9983063,27.451645,2.1015015,27.648666,2.2797546,27.789383,2.4017181,27.939514,2.561203,28.08963,2.7676086,28.174057,2.9177094,28.267868,3.0771942,28.380463,3.1897736,28.51181,3.311737,28.596252,3.4243317,28.652542,3.555664,28.671295,3.6401062,28.596252,3.6401062,28.596252</ss:stroke><ss:stroke color="rgb(8, 8, 8)" strokewidth="0.254">3.715149,28.596252,3.7339172,28.596252,3.7714386,28.596252,3.8371124,28.596252,3.9966125,28.596252,4.137329,28.596252,4.381256,28.596252,4.6908417,28.5681,5.2537537,28.549332,5.769745,28.521194,6.266983,28.46489,6.8017426,28.380463,7.345871,28.305405,7.8712463,28.286636,8.396622,28.286636,8.893845,28.324173,9.391083,28.361694,9.907074,28.361694,10.451218,28.361694,11.014114,28.324173,11.586395,28.249115,12.177444,28.174057,12.665298,28.155304,13.143753,28.155304,13.584702,28.174057,14.044403,28.19281,14.457199,28.211578,14.860611,28.249115,15.254639,28.267868,15.676819,28.267868,16.08023,28.286636,16.427353,28.324173,16.680664,28.361694,17.037155,28.399216,17.393661,28.399216,17.797073,28.35231,18.256775,28.286636,18.63205,28.23973,19.016693,28.19281,19.42012,28.155304,19.879822,28.127151,20.208176,28.127151,20.489624,28.127151,20.78984,28.127151,21.080673,28.14592,21.418411,28.14592,21.728012,28.14592,21.990692,28.14592,22.244003,28.14592,22.384735,28.14592,22.441025,28.136536,22.497314,28.127151,22.516068,28.127151,22.506683,28.127151,22.506683,28.127151</ss:stroke><ss:stroke color="rgb(8, 8, 8)" strokewidth="0.254">21.520874,0.3088684,21.464584,0.29948425,21.34262,0.29948425,21.34262,0.33700562,21.39891,0.35577393,21.549011,0.35577393,21.689743,0.37454224,21.774185,0.52464294,21.867996,0.76856995,22.018112,1.0312653,22.224503,1.2564392,22.412125,1.4065399,22.627914,1.5566711,22.834305,1.7724457,23.050095,2.0445251,23.200195,2.3635101,23.397202,2.6637268,23.556702,2.926422,23.706802,3.2078857,23.913208,3.4987335,24.110214,3.7426605,24.326004,4.061661,24.476105,4.3712463,24.616837,4.662094,24.766953,4.981079,24.963959,5.3094635,25.170364,5.572159,25.32985,5.7879333,25.53624,6.003723,25.733261,6.2851715,25.883362,6.547867,26.033463,6.8199463,26.117905,7.054489,26.296158,7.26091,26.427505,7.4110107,26.511932,7.6174164,26.615128,7.8425903,26.727707,8.058365,26.840286,8.208481,26.952866,8.405502,27.065445,8.536865,27.149887,8.677582,27.23433,8.827698,27.290619,8.96843,27.346909,9.099777,27.365677,9.202972,27.38443,9.315552,27.403183,9.475052,27.421967,9.615784,27.459488,9.747116,27.478256,9.878464,27.478256,10.047348,27.478256,10.244385,27.450104,10.450775,27.44072,10.638412,27.44072,10.844803,27.44072,11.098129,27.44072,11.407745,27.43135,11.764252,27.393814,12.186447,27.356277,12.608627,27.337524,13.040207,27.309372,13.434235,27.290619,13.85643,27.23433,14.344299,27.168655,14.907211,27.112366,15.451355,27.084213,15.995514,27.046692,16.558441,26.990402,17.008774,26.943497,17.430954,26.887207,17.937576,26.821533,18.462967,26.765244,18.96959,26.690186,19.438705,26.624527,19.879654,26.568222,20.301834,26.511932,20.714645,26.465027,21.052399,26.418121,21.399536,26.3806,21.765427,26.343063,22.168854,26.314926,22.525375,26.27739,22.816223,26.239868,23.069519,26.183578,23.407272,26.146042,23.716873,26.117905,23.979568,26.080383,24.22351,26.033463,24.49559,26.005325,24.71138,25.967804,24.936523,25.911514,25.180466,25.85521,25.443161,25.836456,25.668335,25.817703,25.818436,25.74263,25.949783,25.658203,26.034225,25.59253,26.118668,25.554993,26.20311,25.517471,26.2594,25.461182,26.29692,25.395508,26.35321,25.282928,26.465805,25.179733,26.672195,25.05777,26.756638,24.935806,26.84108,24.79509,26.925507,24.607452,27.075623,24.504242,27.188217,24.363525,27.291412,24.250946,27.36647,24.128983,27.469666,23.978882,27.582245,23.828766,27.666687,23.716202,27.722992,23.603607,27.807419,23.453506,27.919998,23.322159,28.079498,23.200195,28.192078,23.097,28.248367,23.021942,28.304672,22.956268,28.342178,22.89061,28.360962,22.88121,28.360962,22.806168,28.379715,22.796783,28.229614,22.796783,28.229614</ss:stroke><ss:stroke color="rgb(8, 8, 8)" strokewidth="0.254">0.46835327,23.116425,0.46835327,23.116425,0.48712158,23.031998,0.5621643,22.919418,0.6653595,22.863113,0.89990234,22.778671,1.2095032,22.713013,1.537857,22.647339,1.8005524,22.609802,2.0820007,22.591034,2.4572754,22.562897,2.8325348,22.506592,3.2171936,22.469086,3.6112213,22.469086,3.9583435,22.534744,4.31485,22.619186,4.7182617,22.675476,5.26239,22.675476,5.834671,22.637955,6.21933,22.581665,6.6133575,22.544144,7.0074005,22.544144,7.4483337,22.544144,7.964325,22.525375,8.461563,22.478455,8.893112,22.431534,9.259003,22.394028,9.690552,22.356491,10.140884,22.347107,10.619339,22.347107,11.135345,22.347107,11.679474,22.337723,12.223618,22.272049,12.730225,22.243896,13.152405,22.243896,13.602722,22.243896,14.062424,22.262665,14.512741,22.262665,14.934921,22.20639,15.272659,22.168854,15.572876,22.168854,15.826187,22.168854,16.107635,22.168854,16.398468,22.159454,16.614243,22.140701,16.848785,22.140701,16.980133,22.140701,17.036423,22.140701,17.036423,22.140701,17.036423,22.140701,17.027039,22.159454,17.027039,22.159454,17.045807,22.159454,17.036423,22.159454,17.036423,22.159454</ss:stroke><ss:stroke color="rgb(8, 8, 8)" strokewidth="0.254">17.543045,22.262665,17.543045,22.253296,17.505508,22.253296,17.505508,22.253296,17.505508,22.253296,17.561798,22.253296,17.683762,22.253296,17.96521,22.253296,18.302948,22.225143,18.621933,22.197006,18.912766,22.168854,19.137924,22.159454,19.222351,22.178238,19.259888,22.234528,19.259888,22.253296,19.259888,22.253296,19.250504,22.253296,19.250504,22.243896,19.241135,22.243896,19.241135,22.234528,19.231735,22.234528,19.212967,22.234528,19.203598,22.234528,19.203598,22.234528,19.203598,22.234528,19.222351,22.234528,19.222351,22.234528,19.222351,22.253296,19.222351,22.272049,19.259888,22.272049,19.259888,22.272049,19.259888,22.272049,19.259888,22.272049,19.259888,22.272049,19.259888,22.272049,19.316177,22.272049,19.316177,22.272049,19.316177,22.290817,19.334946,22.290817,19.353699,22.309586,19.409988,22.328339,19.466278,22.365875,19.522568,22.365875,19.560104,22.403397,19.616379,22.422165,19.672684,22.459702,19.775864,22.497223,19.916595,22.515976,20.113617,22.534744,20.17929,22.57228,20.273102,22.609802,20.329391,22.647339,20.413834,22.68486,20.563934,22.722382,20.71405,22.74115,20.864151,22.778671,20.97673,22.816223,21.136215,22.872498,21.276947,22.891266,21.483353,22.928787,21.708511,22.966309,21.914902,23.00386,22.121307,23.060135,22.243256,23.116425,22.402756,23.172714,22.61853,23.257156,22.82492,23.332214,22.975037,23.388504,23.181442,23.444809,23.397202,23.519852,23.622375,23.59491,23.89444,23.632431,24.138367,23.669983,24.41043,23.726257,24.644974,23.763794,24.870132,23.801315,25.085922,23.838837,25.292313,23.876373,25.498703,23.932663,25.59253,23.988953,25.658203,24.02649,25.695724,24.06401,25.714493,24.082764,25.714493,24.082764,25.761398,24.101532,25.817703,24.101532,25.920883,24.120316,25.967804,24.120316,26.005325,24.120316,25.986557,24.120316,25.883362,24.110916,25.63005,24.110916,25.601913,24.110916,25.601913,24.110916</ss:stroke><ss:stroke color="rgb(8, 8, 8)" strokewidth="0.254">3.4798737,24.298569,3.4798737,24.298569,3.4798737,24.33609,3.4798737,24.326706,3.4517365,24.28917,3.3672943,24.242264,3.254715,24.242264,3.1515198,24.242264,2.9075928,24.261032,2.7856293,24.317322,2.6167603,24.429901,2.522934,24.617554,2.4666595,24.899017,2.438507,25.18985,2.4572754,25.433777,2.5510864,25.687088,2.776245,25.93103,3.1046143,26.165573,3.4517365,26.371979,3.8551483,26.522095,4.31485,26.578384,4.7839355,26.569,5.3656006,26.475174,5.7877655,26.334442,6.1255035,26.156174,6.313141,25.921646,6.4444885,25.612045,6.463257,25.321198,6.397583,24.964676,6.228714,24.598785,5.919113,24.261032,5.6658173,24.035873,5.3749847,23.923279,5.009094,23.791931,4.652588,23.716873,4.2960815,23.707489,3.9958649,23.745026,3.7519379,23.838837,3.5267792,23.951431,3.3672943,24.06401,3.2359467,24.167206,3.1515198,24.261032,3.1327515,24.364243,3.2359467,24.364243,3.2359467,24.364243</ss:stroke><ss:stroke color="rgb(8, 8, 8)" strokewidth="0.254">4.8120728,23.782547,4.8120728,23.782547,4.7933197,23.782547,4.6338196,23.942047,4.408661,24.185974,4.174118,24.50496,3.9208221,24.880249,3.6112213,25.28366,3.3766785,25.630798,3.2453308,25.865341,3.1984253,25.921646,3.2171936,25.912262,3.2171936,25.912262</ss:stroke><ss:stroke color="rgb(8, 8, 8)" strokewidth="0.254">5.243637,24.204742,5.234253,24.204742,5.149811,24.261032,4.980942,24.486206,4.727646,24.777039,4.408661,25.161713,4.080307,25.546356,3.83638,25.865341,3.7519379,26.04361,3.7144165,26.231247,3.7144165,26.231247</ss:stroke><ss:stroke color="rgb(8, 8, 8)" strokewidth="0.254">5.95665,24.730133,5.95665,24.730133,5.834671,24.795807,5.656433,24.964676,5.431259,25.171082,5.1122894,25.490067,4.849594,25.799683,4.6338196,26.034225,4.5493927,26.221863,4.5400085,26.240616,4.5400085,26.240616</ss:stroke><ss:stroke color="rgb(8, 8, 8)" strokewidth="0.254">3.7894745,23.90451,3.7894745,23.90451,3.7894745,23.90451,3.8269958,23.90451,3.8269958,23.970184,3.7331848,24.120316,3.5174103,24.33609,3.2828522,24.655075,3.0295563,24.936523,2.8043976,25.18985,2.682434,25.40564,2.5417023,25.612045,2.5417023,25.612045</ss:stroke><ss:stroke color="rgb(8, 8, 8)" strokewidth="0.254">3.7519379,24.00772,3.7707062,24.00772,3.9208221,24.00772,4.2210236,24.092148,4.511856,24.242264,4.755783,24.458054,5.0278473,24.71138,5.4781647,25.105408,5.825302,25.255524,5.975403,25.293045,6.0316925,25.293045,6.0223083,25.377487,6.0223083,25.377487</ss:stroke><ss:stroke color="rgb(8, 8, 8)" strokewidth="0.254">3.329773,24.617554,3.3203888,24.617554,3.2828522,24.636307,3.2734833,24.748886,3.4329681,24.927155,3.7238007,25.03035,4.089691,25.171082,4.4368134,25.311813,4.7182617,25.443161,4.924652,25.55574,5.0278473,25.649551,5.084152,25.687088,5.084152,25.705856,5.084152,25.705856</ss:stroke><ss:stroke color="rgb(8, 8, 8)" strokewidth="0.254">2.748108,24.91777,2.7387238,24.91777,2.6918182,24.91777,2.6542816,24.974075,2.6918182,25.12416,2.9075928,25.330582,3.1890411,25.480682,3.5267792,25.640182,3.8832855,25.837189,4.2210236,25.9404,4.511856,26.04361,4.5400085,26.062363,4.5400085,26.062363</ss:stroke><ss:stroke color="rgb(8, 8, 8)" strokewidth="0.254">14.437698,23.876373,14.428314,23.85762,14.381393,23.838837,14.334503,23.829468,14.250061,23.820068,14.090576,23.810684,13.799744,23.810684,13.555817,23.913895,13.2556,24.082764,12.99292,24.185974,12.8146515,24.345459,12.645798,24.486206,12.486313,24.71138,12.354965,25.002213,12.308044,25.236755,12.317429,25.461914,12.476913,25.612045,12.711456,25.762146,13.021057,25.98732,13.330658,26.193726,13.705917,26.325058,14.165619,26.381363,14.62532,26.343826,15.056885,26.2594,15.469681,26.20311,15.854324,26.165573,16.182693,26.0999,16.454758,26.006088,16.604874,25.818436,16.717438,25.621414,16.754974,25.368103,16.754974,25.105408,16.698685,24.852081,16.520432,24.598785,16.351562,24.354843,16.107635,24.092148,15.816803,23.86699,15.450912,23.75441,15.113174,23.716873,14.84111,23.716873,14.606567,23.716873,14.372025,23.735641,14.268814,23.75441,14.2031555,23.791931,14.165619,23.86699,14.165619,23.951431,14.296967,23.998322,14.296967,23.998322</ss:stroke><ss:stroke color="rgb(8, 8, 8)" strokewidth="0.254">15.000595,23.75441,14.981827,23.773178,14.84111,23.848236,14.63472,23.998322,14.296967,24.214127,13.9592285,24.49559,13.668396,24.739517,13.415085,25.002213,13.189926,25.199219,13.04921,25.30243,13.030441,25.339966,13.246216,25.274277,13.246216,25.274277</ss:stroke><ss:stroke color="rgb(8, 8, 8)" strokewidth="0.254">15.272659,24.251648,15.16008,24.251648,14.916153,24.401764,14.569031,24.636307,14.193771,24.945908,13.837265,25.171082,13.602722,25.386856,13.508896,25.536987,13.508896,25.593277,13.696548,25.583893,13.696548,25.583893</ss:stroke><ss:stroke color="rgb(8, 8, 8)" strokewidth="0.254">15.985672,24.439285,15.985672,24.439285,16.00444,24.429901,15.835571,24.50496,15.450912,24.814575,15.066269,25.180466,14.803574,25.518219,14.578415,25.799683,14.47522,25.949783,14.428314,25.968536,14.428314,25.968536</ss:stroke><ss:stroke color="rgb(8, 8, 8)" strokewidth="0.254">13.349411,24.101532,13.386948,24.035873,13.583969,23.960815,13.827881,23.960815,14.015518,24.110916,14.231293,24.317322,14.493988,24.523727,14.822342,24.720749,15.169464,24.795807,15.52597,24.814575,15.704224,24.814575,15.722977,24.833328,15.63855,24.852081,15.63855,24.852081</ss:stroke><ss:stroke color="rgb(8, 8, 8)" strokewidth="0.254">13.0585785,24.786423,13.0585785,24.786423,13.0585785,24.786423,13.133636,24.870865,13.405716,25.020966,13.7903595,25.12416,14.221909,25.236755,14.662857,25.311813,15.028732,25.368103,15.263275,25.40564,15.422775,25.443161,15.460297,25.480682,15.37587,25.480682,15.272659,25.480682,15.272659,25.480682</ss:stroke><ss:stroke color="rgb(8, 8, 8)" strokewidth="0.254">12.974152,25.002213,12.974152,25.002213,12.93663,24.992828,12.880325,25.13356,12.880325,25.28366,13.030441,25.433777,13.358795,25.546356,13.7903595,25.621414,14.165619,25.724625,14.41893,25.855972,14.644089,26.006088,14.803574,26.250015,14.803574,26.250015</ss:stroke><ss:stroke color="rgb(8, 8, 8)" strokewidth="0.254">19.728973,23.86699,19.70082,23.885757,19.522568,23.951431,19.503815,23.951431,19.485046,23.951431,19.475662,23.988953,19.466278,24.148453,19.43814,24.467438,19.40062,24.927155,19.363083,25.50885,19.306793,26.109283,19.28804,26.68158,19.28804,27.103775,19.325546,27.282028,19.40062,27.328934,19.531952,27.216354,19.531952,27.216354</ss:stroke><ss:stroke color="rgb(8, 8, 8)" strokewidth="0.254">20.72342,23.90451,20.704666,23.90451,20.592087,23.90451,20.573318,23.90451,20.573318,24.045258,20.573318,24.326706,20.545181,24.75827,20.507645,25.321198,20.507645,25.968536,20.498276,26.615906,20.498276,27.113144,20.498276,27.328934,20.535797,27.338318,20.629608,27.009949,20.88292,26.315674,20.901688,26.128036,20.901688,26.128036</ss:stroke><ss:stroke color="rgb(8, 8, 8)" strokewidth="0.254">21.6147,23.951431,21.595932,23.942047,21.567795,23.942047,21.567795,24.120316,21.549011,24.458054,21.464584,24.964676,21.436432,25.574493,21.408295,26.20311,21.408295,26.77539,21.408295,27.141296,21.408295,27.216354,21.502106,27.131912,21.6053,26.93489,21.6053,26.93489</ss:stroke><ss:stroke color="rgb(8, 8, 8)" strokewidth="0.254">22.721725,24.354843,22.778015,24.354843,22.862457,24.486206,22.843704,24.795807,22.740494,25.30243,22.627914,25.855972,22.534103,26.35321,22.515335,26.73787,22.515335,26.850449,22.56224,26.859833,22.712357,26.475174,22.712357,26.475174</ss:stroke><ss:stroke color="rgb(8, 8, 8)" strokewidth="0.254">23.716202,24.082764,23.678665,24.17659,23.612991,24.44867,23.52855,24.833328,23.415985,25.339966,23.294006,25.884125,23.190811,26.428253,23.153275,26.89737,23.153275,27.085007,23.228348,27.131912,23.425354,26.859833,23.444122,26.747253,23.444122,26.747253</ss:stroke><ss:stroke color="rgb(8, 8, 8)" strokewidth="0.254">24.532394,24.49559,24.551163,24.49559,24.569931,24.655075,24.569931,24.936523,24.513626,25.368103,24.447952,25.846588,24.401047,26.268768,24.401047,26.550247,24.419815,26.662811,24.457352,26.644058,24.532394,26.400116,24.532394,26.400116</ss:stroke><ss:stroke color="rgb(8, 8, 8)" strokewidth="0.254">25.386124,24.401764,25.386124,24.39238,25.376755,24.523727,25.292313,24.86148,25.142197,25.40564,25.039017,25.893494,25.020248,26.184341,25.020248,26.334442,25.020248,26.334442</ss:stroke><ss:stroke color="rgb(8, 8, 8)" strokewidth="0.254">4.6056824,3.4330597,4.6056824,3.4330597,4.568161,3.451828,4.5306244,3.451828,4.511856,3.451828,4.511856,3.451828,4.511856,3.4143066,4.511856,3.3580017,4.4649506,3.3392487,4.3711395,3.3580017,4.2866974,3.4143066,4.2210236,3.4330597,4.1553497,3.4330597,4.0615387,3.4330597,3.9489594,3.451828,3.8269958,3.5081177,3.742569,3.564392,3.667511,3.601944,3.592453,3.6394653,3.5174103,3.695755,3.4517365,3.7332764,3.3766785,3.7895813,3.2734833,3.8740234,3.179657,3.9678345,3.085846,4.0710297,3.010788,4.183609,2.9544983,4.314972,2.93573,4.4275513,2.93573,4.6245728,2.8982086,4.8309784,2.841919,5.0655212,2.757492,5.290695,2.7105713,5.4877167,2.682434,5.628433,2.6542816,5.8442383,2.6355133,6.0693817,2.607376,6.313324,2.579239,6.5666504,2.5604706,6.866852,2.522934,7.1389313,2.4854126,7.3734894,2.4666595,7.579895,2.4478912,7.814438,2.438507,8.0959015,2.4009857,8.414871,2.3916016,8.733871,2.3728333,9.015335,2.335312,9.249878,2.2977753,9.465668,2.269638,9.662689,2.2508698,9.878464,2.2414856,10.113022,2.2227325,10.338196,2.2133484,10.544586,2.185196,10.750992,2.1476746,10.957397,2.1289062,11.163803,2.091385,11.370209,2.0820007,11.56723,2.0726166,11.773636,2.0726166,12.008179,2.0726166,12.270889,2.0538635,12.505417,2.016327,12.768127,1.9881897,12.993286,1.9788055,13.180923,1.9788055,13.387344,1.9506531,13.546829,1.9319,13.762619,1.9131317,13.997162,1.8755951,14.231705,1.8380737,14.43811,1.8286896,14.635132,1.8286896,14.832153,1.8286896,15.029175,1.8193207,15.263718,1.781784,15.517044,1.763031,15.71405,1.763031,15.845413,1.781784,15.976761,1.781784,16.108109,1.781784,16.239456,1.781784,16.41771,1.781784,16.549042,1.781784,16.699173,1.781784,16.849289,1.781784,16.99939,1.781784,17.130737,1.8005524,17.26207,1.8193207,17.393433,1.8380737,17.52478,1.8755951,17.68428,1.9131317,17.806244,1.9319,17.956345,1.9506531,18.11583,2.0069427,18.200272,2.0820007,18.284714,2.1664429,18.359772,2.2790222,18.43483,2.4572754,18.519272,2.5886078,18.603714,2.7293396,18.678757,2.9451141,18.735062,3.1515198,18.810104,3.3110046,18.866394,3.5080261,18.90393,3.742569,18.90393,3.9583435,18.90393,4.1928864,18.90393,4.4368134,18.90393,4.661972,18.90393,4.896515,18.90393,5.1216736,18.90393,5.506317,18.866394,5.750244,18.847641,5.975403,18.838257,6.2756195,18.838257,6.500778,18.838257,6.744705,18.838257,6.988632,18.819504,7.307602,18.800735,7.6078186,18.772583,7.8611298,18.735062,8.217636,18.70691,8.4897,18.669388,8.780533,18.65062,9.033844,18.65062,9.296524,18.65062,9.624893,18.631851,9.91571,18.622467,10.225311,18.613098,10.50676,18.613098,10.7413025,18.613098,11.060287,18.613098,11.332352,18.613098,11.576279,18.613098,11.792053,18.669388,12.026596,18.68814,12.326813,18.68814,12.617645,18.678757,12.880325,18.660004,13.124252,18.64125,13.340042,18.622467,13.583969,18.59433,13.846649,18.575562,14.062424,18.575562,14.221909,18.575562,14.41893,18.575562,14.615952,18.556793,14.784821,18.519272,14.972443,18.48175,15.131943,18.462967,15.282043,18.444214,15.497818,18.416077,15.722977,18.37854,15.873093,18.369156,15.9387665,18.369156,15.995056,18.369156,16.051346,18.359772,16.107635,18.32225,16.135788,18.21904,16.135788,18.21904</ss:stroke><ss:stroke color="rgb(8, 8, 8)" strokewidth="0.254">4.586914,3.3955383,4.586914,3.386139,4.6056824,3.3486176,4.6432037,3.301712,4.7182617,3.2360535,4.830841,3.1516113,4.990326,3.0671692,5.1216736,3.0108643,5.2061005,3.0014954,5.26239,3.0765533,5.5438538,3.132843,5.825302,3.132843,6.050461,3.132843,6.3788147,3.132843,6.660263,3.1140594,7.0261536,3.0671692,7.401413,3.0014954,7.6828766,2.973343,8.06752,2.9639587,8.395889,2.926422,8.771149,2.8607635,9.118271,2.8044739,9.427872,2.7387848,9.746841,2.7106476,9.990768,2.7106476,10.253464,2.7106476,10.553665,2.7106476,10.797592,2.6731262,11.069672,2.6449738,11.322968,2.6449738,11.566895,2.6449738,11.867111,2.6449738,12.120422,2.6449738,12.373718,2.6168365,12.580124,2.6168365,12.711456,2.5980682,12.927246,2.5699158,13.152405,2.5417786,13.386948,2.5230103,13.555817,2.513626,13.687164,2.513626,13.884171,2.513626,14.118713,2.504242,14.334503,2.4760895,14.569031,2.4385834,14.775436,2.4385834,14.963058,2.4385834,15.10379,2.4385834,15.300812,2.410431,15.497818,2.3916473,15.722977,2.3822784,15.929382,2.3728943,16.145157,2.344757,16.370316,2.3072205,16.576721,2.269699,16.726822,2.269699,16.85817,2.269699,16.970749,2.2884521,17.12085,2.3072205,17.317871,2.3072205,17.467972,2.3072205,17.608704,2.3259888,17.740051,2.3822784,17.81511,2.4573364,17.96521,2.5605316,18.068405,2.6637268,18.265427,2.7669373,18.340485,2.8795319,18.378006,3.0296326,18.396774,3.226654,18.453064,3.4236908,18.509354,3.5737915,18.575012,3.7801971,18.640701,4.005356,18.659454,4.249298,18.678223,4.493225,18.678223,4.727768,18.678223,5.0092316,18.659454,5.3188324,18.631302,5.600296,18.603165,5.919281,18.575012,6.294571,18.509354,6.6698456,18.453064,7.054489,18.424911,7.364105,18.378006,7.6361847,18.349869,7.9364014,18.321716,8.302307,18.293564,8.733871,18.22789,9.137283,18.134079,9.503204,18.07779,9.7565,18.040268,10.066116,18.002731,10.385101,17.899536,10.7322235,17.843246,11.107498,17.777573,11.492172,17.749435,11.811157,17.693146,12.130142,17.636856,12.383453,17.59932,12.721207,17.561798,13.05896,17.505508,13.42485,17.477371,13.753235,17.43045,14.07222,17.402313,14.363052,17.37416,14.682037,17.355392,14.925964,17.346024,15.160522,17.346024,15.413849,17.33664,15.657776,17.308487,15.87355,17.261581,16.070572,17.242828,16.286362,17.224045,16.436462,17.214676,16.652252,17.177155,16.792984,17.158386,16.961868,17.139633,17.177643,17.111465,17.327759,17.073944,17.47786,17.036423,17.618607,17.027039,17.778091,16.998901,17.871918,16.980133,17.975128,16.970749,18.059555,16.942612,18.134613,16.923843,18.21904,16.895706,18.294098,16.886322,18.369156,16.876938,18.42546,16.85817,18.444214,16.811264,18.462967,16.754974,18.48175,16.6893,18.48175,16.614243,18.462967,16.586105,18.294098,16.511047,18.294098,16.511047,18.294098</ss:stroke><ss:stroke color="rgb(8, 8, 8)" strokewidth="0.254">21.637375,0.45100403,21.637375,0.45100403,21.618607,0.5072937,21.59047,0.5823517,21.581085,0.676178,21.581085,0.7887573,21.571701,0.94825745,21.524796,1.1077576,21.440353,1.3235321,21.36531,1.6519012,21.2621,2.0459442,21.196426,2.4024506,21.130768,2.730835,21.046326,3.0779724,20.933746,3.4157104,20.821167,3.8003845,20.764877,4.175659,20.717972,4.5790863,20.671066,5.029419,20.62416,5.517273,20.567871,5.986374,20.52095,6.389801,20.436508,6.7369385,20.380234,7.1403503,20.352081,7.600067,20.333328,8.097321,20.305176,8.528885,20.277023,8.960449,20.239502,9.354507,20.192596,9.739166,20.136307,10.133194,20.09877,10.564774,20.070633,10.986969,20.070633,11.409149,20.070633,11.784424,20.033096,12.140945,19.976822,12.403641,19.920532,12.741394,19.882996,13.107285,19.807938,13.482559,19.704742,13.951675,19.667221,14.214371,19.601547,14.655304,19.57341,15.030594,19.554642,15.443405,19.535873,15.846832,19.498337,16.19397,19.432678,16.55986,19.367004,16.906982,19.348236,17.225983,19.348236,17.507431,19.310715,17.74199,19.24504,18.004684,19.20752,18.342422,19.169998,18.63327,19.123093,18.952255,19.104324,19.261871,19.104324,19.571472,19.094925,19.8154,19.085556,20.078094,19.066788,20.331406,19.03865,20.565948,19.019882,20.819275,18.99173,21.006912,18.972977,21.19455,18.972977,21.400955,18.99173,21.588593,18.99173,21.748077,18.99173,21.907578,18.99173,22.010773,18.99173,22.067062,18.99173,22.08583,18.99173,22.123367,19.010498,22.14212,19.029266,22.14212,19.019882,22.067062,18.972977,21.907578,18.972977,21.907578</ss:stroke></ss:strokes><g stroke="rgb(8, 8, 8)" stroke-width="0.254" fill="none"><path d = "M 1.557373 1.735672 L 1.5761261 1.735672 1.6136627 1.7169037 1.6324158 1.7169037 1.6511841 1.7169037 1.7262421 1.7169037 1.8294373 1.7169037 1.979538 1.6699982 2.2046967 1.5949402 2.5142975 1.510498 2.8614197 1.4354401 3.2460785 1.3697815 3.6588593 1.3322296 4.127945 1.2947235 4.6627045 1.2196655 5.4976807 1.0789337 5.9761505 0.9944916 6.4733734 0.91004944 6.998749 0.8350067 7.5428925 0.7505646 8.077652 0.7036438 8.527969 0.6755066 9.015808 0.6473541 9.569336 0.5723114 10.11348 0.4784851 10.63884 0.41281128 11.070404 0.39404297 11.501968 0.39404297 11.971054 0.39404297 12.487045 0.39404297 13.040558 0.35650635 13.575317 0.29083252 14.063156 0.25331116 14.438431 0.19702148 14.832474 0.15948486 15.226501 0.112594604 15.658051 0.10319519 16.08023 0.10319519 16.502396 0.07505798 16.887054 0.03753662 17.252945 0.0 17.609451 0.0 17.965942 0.0 18.331833 0.01876831 18.716476 0.03753662 19.082382 0.07505798 19.42012 0.07505798 19.748474 0.07505798 19.973633 0.07505798 20.170654 0.06567383 20.264465 0.06567383 20.377045 0.06567383 20.508377 0.10319519 20.58345 0.12197876 20.574066 0.16886902 20.574066 0.16886902 " /></g><g stroke="rgb(8, 8, 8)" stroke-width="0.254" fill="none"><path d = "M 2.0076904 1.8013458 L 2.0076904 1.8013458 1.979538 1.8013458 1.9420166 1.8201141 1.8951111 1.9139252 1.8200531 2.0827942 1.735611 2.2516785 1.6417999 2.4956055 1.5479889 2.8239746 1.4354095 3.1429596 1.2946777 3.4619446 1.1914825 3.7997131 1.0976715 4.174988 1.0132294 4.587784 0.9381714 5.0287323 0.8631134 5.488449 0.82559204 5.9575653 0.7786865 6.4454193 0.72239685 6.961426 0.6848602 7.4774475 0.64733887 7.9934387 0.61920166 8.500061 0.5910492 8.98793 0.5722809 9.466415 0.5347595 9.963654 0.49723816 10.5078125 0.4690857 11.06134 0.4409485 11.586746 0.40342712 12.065216 0.35650635 12.478027 0.32836914 12.890839 0.30960083 13.35054 0.27207947 13.810257 0.23454285 14.30751 0.21577454 14.795364 0.19702148 15.264465 0.18763733 15.733566 0.15950012 16.221436 0.1219635 16.74681 0.06567383 17.262833 0.01876831 17.750687 0.0 18.219788 0.0 18.698273 0.0 19.20491 0.0 19.711517 0.0 20.218155 0.0 20.68724 0.0 21.109436 0.0 21.494095 0.03753662 21.850616 0.056289673 22.216507 0.07505798 22.55426 0.112579346 22.891998 0.16886902 23.220383 0.22515869 23.5206 0.2626953 23.820816 0.318985 24.10228 0.35650635 24.327454 0.39404297 24.524475 0.43156433 24.740265 0.487854 24.974808 0.562912 25.218735 0.656723 25.42514 0.74116516 25.612778 0.82559204 25.819183 0.90065 26.034973 0.9569397 26.250748 1.0413666 26.44777 1.144577 26.597885 1.2571564 26.729233 1.3697357 26.888718 1.5198364 27.038834 1.6511841 27.160797 1.8012848 27.301544 1.9983063 27.451645 2.1015015 27.648666 2.2797546 27.789383 2.4017181 27.939514 2.561203 28.08963 2.7676086 28.174057 2.9177094 28.267868 3.0771942 28.380463 3.1897736 28.51181 3.311737 28.596252 3.4243317 28.652542 3.555664 28.671295 3.6401062 28.596252 3.6401062 28.596252 " /></g><g stroke="rgb(8, 8, 8)" stroke-width="0.254" fill="none"><path d = "M 3.715149 28.596252 L 3.7339172 28.596252 3.7714386 28.596252 3.8371124 28.596252 3.9966125 28.596252 4.137329 28.596252 4.381256 28.596252 4.6908417 28.5681 5.2537537 28.549332 5.769745 28.521194 6.266983 28.46489 6.8017426 28.380463 7.345871 28.305405 7.8712463 28.286636 8.396622 28.286636 8.893845 28.324173 9.391083 28.361694 9.907074 28.361694 10.451218 28.361694 11.014114 28.324173 11.586395 28.249115 12.177444 28.174057 12.665298 28.155304 13.143753 28.155304 13.584702 28.174057 14.044403 28.19281 14.457199 28.211578 14.860611 28.249115 15.254639 28.267868 15.676819 28.267868 16.08023 28.286636 16.427353 28.324173 16.680664 28.361694 17.037155 28.399216 17.393661 28.399216 17.797073 28.35231 18.256775 28.286636 18.63205 28.23973 19.016693 28.19281 19.42012 28.155304 19.879822 28.127151 20.208176 28.127151 20.489624 28.127151 20.78984 28.127151 21.080673 28.14592 21.418411 28.14592 21.728012 28.14592 21.990692 28.14592 22.244003 28.14592 22.384735 28.14592 22.441025 28.136536 22.497314 28.127151 22.516068 28.127151 22.506683 28.127151 22.506683 28.127151 " /></g><g stroke="rgb(8, 8, 8)" stroke-width="0.254" fill="none"><path d = "M 21.520874 0.3088684 L 21.464584 0.29948425 21.34262 0.29948425 21.34262 0.33700562 21.39891 0.35577393 21.549011 0.35577393 21.689743 0.37454224 21.774185 0.52464294 21.867996 0.76856995 22.018112 1.0312653 22.224503 1.2564392 22.412125 1.4065399 22.627914 1.5566711 22.834305 1.7724457 23.050095 2.0445251 23.200195 2.3635101 23.397202 2.6637268 23.556702 2.926422 23.706802 3.2078857 23.913208 3.4987335 24.110214 3.7426605 24.326004 4.061661 24.476105 4.3712463 24.616837 4.662094 24.766953 4.981079 24.963959 5.3094635 25.170364 5.572159 25.32985 5.7879333 25.53624 6.003723 25.733261 6.2851715 25.883362 6.547867 26.033463 6.8199463 26.117905 7.054489 26.296158 7.26091 26.427505 7.4110107 26.511932 7.6174164 26.615128 7.8425903 26.727707 8.058365 26.840286 8.208481 26.952866 8.405502 27.065445 8.536865 27.149887 8.677582 27.23433 8.827698 27.290619 8.96843 27.346909 9.099777 27.365677 9.202972 27.38443 9.315552 27.403183 9.475052 27.421967 9.615784 27.459488 9.747116 27.478256 9.878464 27.478256 10.047348 27.478256 10.244385 27.450104 10.450775 27.44072 10.638412 27.44072 10.844803 27.44072 11.098129 27.44072 11.407745 27.43135 11.764252 27.393814 12.186447 27.356277 12.608627 27.337524 13.040207 27.309372 13.434235 27.290619 13.85643 27.23433 14.344299 27.168655 14.907211 27.112366 15.451355 27.084213 15.995514 27.046692 16.558441 26.990402 17.008774 26.943497 17.430954 26.887207 17.937576 26.821533 18.462967 26.765244 18.96959 26.690186 19.438705 26.624527 19.879654 26.568222 20.301834 26.511932 20.714645 26.465027 21.052399 26.418121 21.399536 26.3806 21.765427 26.343063 22.168854 26.314926 22.525375 26.27739 22.816223 26.239868 23.069519 26.183578 23.407272 26.146042 23.716873 26.117905 23.979568 26.080383 24.22351 26.033463 24.49559 26.005325 24.71138 25.967804 24.936523 25.911514 25.180466 25.85521 25.443161 25.836456 25.668335 25.817703 25.818436 25.74263 25.949783 25.658203 26.034225 25.59253 26.118668 25.554993 26.20311 25.517471 26.2594 25.461182 26.29692 25.395508 26.35321 25.282928 26.465805 25.179733 26.672195 25.05777 26.756638 24.935806 26.84108 24.79509 26.925507 24.607452 27.075623 24.504242 27.188217 24.363525 27.291412 24.250946 27.36647 24.128983 27.469666 23.978882 27.582245 23.828766 27.666687 23.716202 27.722992 23.603607 27.807419 23.453506 27.919998 23.322159 28.079498 23.200195 28.192078 23.097 28.248367 23.021942 28.304672 22.956268 28.342178 22.89061 28.360962 22.88121 28.360962 22.806168 28.379715 22.796783 28.229614 22.796783 28.229614 " /></g><g stroke="rgb(8, 8, 8)" stroke-width="0.254" fill="none"><path d = "M 0.46835327 23.116425 L 0.46835327 23.116425 0.48712158 23.031998 0.5621643 22.919418 0.6653595 22.863113 0.89990234 22.778671 1.2095032 22.713013 1.537857 22.647339 1.8005524 22.609802 2.0820007 22.591034 2.4572754 22.562897 2.8325348 22.506592 3.2171936 22.469086 3.6112213 22.469086 3.9583435 22.534744 4.31485 22.619186 4.7182617 22.675476 5.26239 22.675476 5.834671 22.637955 6.21933 22.581665 6.6133575 22.544144 7.0074005 22.544144 7.4483337 22.544144 7.964325 22.525375 8.461563 22.478455 8.893112 22.431534 9.259003 22.394028 9.690552 22.356491 10.140884 22.347107 10.619339 22.347107 11.135345 22.347107 11.679474 22.337723 12.223618 22.272049 12.730225 22.243896 13.152405 22.243896 13.602722 22.243896 14.062424 22.262665 14.512741 22.262665 14.934921 22.20639 15.272659 22.168854 15.572876 22.168854 15.826187 22.168854 16.107635 22.168854 16.398468 22.159454 16.614243 22.140701 16.848785 22.140701 16.980133 22.140701 17.036423 22.140701 17.036423 22.140701 17.036423 22.140701 17.027039 22.159454 17.027039 22.159454 17.045807 22.159454 17.036423 22.159454 17.036423 22.159454 " /></g><g stroke="rgb(8, 8, 8)" stroke-width="0.254" fill="none"><path d = "M 17.543045 22.262665 L 17.543045 22.253296 17.505508 22.253296 17.505508 22.253296 17.505508 22.253296 17.561798 22.253296 17.683762 22.253296 17.96521 22.253296 18.302948 22.225143 18.621933 22.197006 18.912766 22.168854 19.137924 22.159454 19.222351 22.178238 19.259888 22.234528 19.259888 22.253296 19.259888 22.253296 19.250504 22.253296 19.250504 22.243896 19.241135 22.243896 19.241135 22.234528 19.231735 22.234528 19.212967 22.234528 19.203598 22.234528 19.203598 22.234528 19.203598 22.234528 19.222351 22.234528 19.222351 22.234528 19.222351 22.253296 19.222351 22.272049 19.259888 22.272049 19.259888 22.272049 19.259888 22.272049 19.259888 22.272049 19.259888 22.272049 19.259888 22.272049 19.316177 22.272049 19.316177 22.272049 19.316177 22.290817 19.334946 22.290817 19.353699 22.309586 19.409988 22.328339 19.466278 22.365875 19.522568 22.365875 19.560104 22.403397 19.616379 22.422165 19.672684 22.459702 19.775864 22.497223 19.916595 22.515976 20.113617 22.534744 20.17929 22.57228 20.273102 22.609802 20.329391 22.647339 20.413834 22.68486 20.563934 22.722382 20.71405 22.74115 20.864151 22.778671 20.97673 22.816223 21.136215 22.872498 21.276947 22.891266 21.483353 22.928787 21.708511 22.966309 21.914902 23.00386 22.121307 23.060135 22.243256 23.116425 22.402756 23.172714 22.61853 23.257156 22.82492 23.332214 22.975037 23.388504 23.181442 23.444809 23.397202 23.519852 23.622375 23.59491 23.89444 23.632431 24.138367 23.669983 24.41043 23.726257 24.644974 23.763794 24.870132 23.801315 25.085922 23.838837 25.292313 23.876373 25.498703 23.932663 25.59253 23.988953 25.658203 24.02649 25.695724 24.06401 25.714493 24.082764 25.714493 24.082764 25.761398 24.101532 25.817703 24.101532 25.920883 24.120316 25.967804 24.120316 26.005325 24.120316 25.986557 24.120316 25.883362 24.110916 25.63005 24.110916 25.601913 24.110916 25.601913 24.110916 " /></g><g stroke="rgb(8, 8, 8)" stroke-width="0.254" fill="none"><path d = "M 3.4798737 24.298569 L 3.4798737 24.298569 3.4798737 24.33609 3.4798737 24.326706 3.4517365 24.28917 3.3672943 24.242264 3.254715 24.242264 3.1515198 24.242264 2.9075928 24.261032 2.7856293 24.317322 2.6167603 24.429901 2.522934 24.617554 2.4666595 24.899017 2.438507 25.18985 2.4572754 25.433777 2.5510864 25.687088 2.776245 25.93103 3.1046143 26.165573 3.4517365 26.371979 3.8551483 26.522095 4.31485 26.578384 4.7839355 26.569 5.3656006 26.475174 5.7877655 26.334442 6.1255035 26.156174 6.313141 25.921646 6.4444885 25.612045 6.463257 25.321198 6.397583 24.964676 6.228714 24.598785 5.919113 24.261032 5.6658173 24.035873 5.3749847 23.923279 5.009094 23.791931 4.652588 23.716873 4.2960815 23.707489 3.9958649 23.745026 3.7519379 23.838837 3.5267792 23.951431 3.3672943 24.06401 3.2359467 24.167206 3.1515198 24.261032 3.1327515 24.364243 3.2359467 24.364243 3.2359467 24.364243 " /></g><g stroke="rgb(8, 8, 8)" stroke-width="0.254" fill="none"><path d = "M 4.8120728 23.782547 L 4.8120728 23.782547 4.7933197 23.782547 4.6338196 23.942047 4.408661 24.185974 4.174118 24.50496 3.9208221 24.880249 3.6112213 25.28366 3.3766785 25.630798 3.2453308 25.865341 3.1984253 25.921646 3.2171936 25.912262 3.2171936 25.912262 " /></g><g stroke="rgb(8, 8, 8)" stroke-width="0.254" fill="none"><path d = "M 5.243637 24.204742 L 5.234253 24.204742 5.149811 24.261032 4.980942 24.486206 4.727646 24.777039 4.408661 25.161713 4.080307 25.546356 3.83638 25.865341 3.7519379 26.04361 3.7144165 26.231247 3.7144165 26.231247 " /></g><g stroke="rgb(8, 8, 8)" stroke-width="0.254" fill="none"><path d = "M 5.95665 24.730133 L 5.95665 24.730133 5.834671 24.795807 5.656433 24.964676 5.431259 25.171082 5.1122894 25.490067 4.849594 25.799683 4.6338196 26.034225 4.5493927 26.221863 4.5400085 26.240616 4.5400085 26.240616 " /></g><g stroke="rgb(8, 8, 8)" stroke-width="0.254" fill="none"><path d = "M 3.7894745 23.90451 L 3.7894745 23.90451 3.7894745 23.90451 3.8269958 23.90451 3.8269958 23.970184 3.7331848 24.120316 3.5174103 24.33609 3.2828522 24.655075 3.0295563 24.936523 2.8043976 25.18985 2.682434 25.40564 2.5417023 25.612045 2.5417023 25.612045 " /></g><g stroke="rgb(8, 8, 8)" stroke-width="0.254" fill="none"><path d = "M 3.7519379 24.00772 L 3.7707062 24.00772 3.9208221 24.00772 4.2210236 24.092148 4.511856 24.242264 4.755783 24.458054 5.0278473 24.71138 5.4781647 25.105408 5.825302 25.255524 5.975403 25.293045 6.0316925 25.293045 6.0223083 25.377487 6.0223083 25.377487 " /></g><g stroke="rgb(8, 8, 8)" stroke-width="0.254" fill="none"><path d = "M 3.329773 24.617554 L 3.3203888 24.617554 3.2828522 24.636307 3.2734833 24.748886 3.4329681 24.927155 3.7238007 25.03035 4.089691 25.171082 4.4368134 25.311813 4.7182617 25.443161 4.924652 25.55574 5.0278473 25.649551 5.084152 25.687088 5.084152 25.705856 5.084152 25.705856 " /></g><g stroke="rgb(8, 8, 8)" stroke-width="0.254" fill="none"><path d = "M 2.748108 24.91777 L 2.7387238 24.91777 2.6918182 24.91777 2.6542816 24.974075 2.6918182 25.12416 2.9075928 25.330582 3.1890411 25.480682 3.5267792 25.640182 3.8832855 25.837189 4.2210236 25.9404 4.511856 26.04361 4.5400085 26.062363 4.5400085 26.062363 " /></g><g stroke="rgb(8, 8, 8)" stroke-width="0.254" fill="none"><path d = "M 14.437698 23.876373 L 14.428314 23.85762 14.381393 23.838837 14.334503 23.829468 14.250061 23.820068 14.090576 23.810684 13.799744 23.810684 13.555817 23.913895 13.2556 24.082764 12.99292 24.185974 12.8146515 24.345459 12.645798 24.486206 12.486313 24.71138 12.354965 25.002213 12.308044 25.236755 12.317429 25.461914 12.476913 25.612045 12.711456 25.762146 13.021057 25.98732 13.330658 26.193726 13.705917 26.325058 14.165619 26.381363 14.62532 26.343826 15.056885 26.2594 15.469681 26.20311 15.854324 26.165573 16.182693 26.0999 16.454758 26.006088 16.604874 25.818436 16.717438 25.621414 16.754974 25.368103 16.754974 25.105408 16.698685 24.852081 16.520432 24.598785 16.351562 24.354843 16.107635 24.092148 15.816803 23.86699 15.450912 23.75441 15.113174 23.716873 14.84111 23.716873 14.606567 23.716873 14.372025 23.735641 14.268814 23.75441 14.2031555 23.791931 14.165619 23.86699 14.165619 23.951431 14.296967 23.998322 14.296967 23.998322 " /></g><g stroke="rgb(8, 8, 8)" stroke-width="0.254" fill="none"><path d = "M 15.000595 23.75441 L 14.981827 23.773178 14.84111 23.848236 14.63472 23.998322 14.296967 24.214127 13.9592285 24.49559 13.668396 24.739517 13.415085 25.002213 13.189926 25.199219 13.04921 25.30243 13.030441 25.339966 13.246216 25.274277 13.246216 25.274277 " /></g><g stroke="rgb(8, 8, 8)" stroke-width="0.254" fill="none"><path d = "M 15.272659 24.251648 L 15.16008 24.251648 14.916153 24.401764 14.569031 24.636307 14.193771 24.945908 13.837265 25.171082 13.602722 25.386856 13.508896 25.536987 13.508896 25.593277 13.696548 25.583893 13.696548 25.583893 " /></g><g stroke="rgb(8, 8, 8)" stroke-width="0.254" fill="none"><path d = "M 15.985672 24.439285 L 15.985672 24.439285 16.00444 24.429901 15.835571 24.50496 15.450912 24.814575 15.066269 25.180466 14.803574 25.518219 14.578415 25.799683 14.47522 25.949783 14.428314 25.968536 14.428314 25.968536 " /></g><g stroke="rgb(8, 8, 8)" stroke-width="0.254" fill="none"><path d = "M 13.349411 24.101532 L 13.386948 24.035873 13.583969 23.960815 13.827881 23.960815 14.015518 24.110916 14.231293 24.317322 14.493988 24.523727 14.822342 24.720749 15.169464 24.795807 15.52597 24.814575 15.704224 24.814575 15.722977 24.833328 15.63855 24.852081 15.63855 24.852081 " /></g><g stroke="rgb(8, 8, 8)" stroke-width="0.254" fill="none"><path d = "M 13.0585785 24.786423 L 13.0585785 24.786423 13.0585785 24.786423 13.133636 24.870865 13.405716 25.020966 13.7903595 25.12416 14.221909 25.236755 14.662857 25.311813 15.028732 25.368103 15.263275 25.40564 15.422775 25.443161 15.460297 25.480682 15.37587 25.480682 15.272659 25.480682 15.272659 25.480682 " /></g><g stroke="rgb(8, 8, 8)" stroke-width="0.254" fill="none"><path d = "M 12.974152 25.002213 L 12.974152 25.002213 12.93663 24.992828 12.880325 25.13356 12.880325 25.28366 13.030441 25.433777 13.358795 25.546356 13.7903595 25.621414 14.165619 25.724625 14.41893 25.855972 14.644089 26.006088 14.803574 26.250015 14.803574 26.250015 " /></g><g stroke="rgb(8, 8, 8)" stroke-width="0.254" fill="none"><path d = "M 19.728973 23.86699 L 19.70082 23.885757 19.522568 23.951431 19.503815 23.951431 19.485046 23.951431 19.475662 23.988953 19.466278 24.148453 19.43814 24.467438 19.40062 24.927155 19.363083 25.50885 19.306793 26.109283 19.28804 26.68158 19.28804 27.103775 19.325546 27.282028 19.40062 27.328934 19.531952 27.216354 19.531952 27.216354 " /></g><g stroke="rgb(8, 8, 8)" stroke-width="0.254" fill="none"><path d = "M 20.72342 23.90451 L 20.704666 23.90451 20.592087 23.90451 20.573318 23.90451 20.573318 24.045258 20.573318 24.326706 20.545181 24.75827 20.507645 25.321198 20.507645 25.968536 20.498276 26.615906 20.498276 27.113144 20.498276 27.328934 20.535797 27.338318 20.629608 27.009949 20.88292 26.315674 20.901688 26.128036 20.901688 26.128036 " /></g><g stroke="rgb(8, 8, 8)" stroke-width="0.254" fill="none"><path d = "M 21.6147 23.951431 L 21.595932 23.942047 21.567795 23.942047 21.567795 24.120316 21.549011 24.458054 21.464584 24.964676 21.436432 25.574493 21.408295 26.20311 21.408295 26.77539 21.408295 27.141296 21.408295 27.216354 21.502106 27.131912 21.6053 26.93489 21.6053 26.93489 " /></g><g stroke="rgb(8, 8, 8)" stroke-width="0.254" fill="none"><path d = "M 22.721725 24.354843 L 22.778015 24.354843 22.862457 24.486206 22.843704 24.795807 22.740494 25.30243 22.627914 25.855972 22.534103 26.35321 22.515335 26.73787 22.515335 26.850449 22.56224 26.859833 22.712357 26.475174 22.712357 26.475174 " /></g><g stroke="rgb(8, 8, 8)" stroke-width="0.254" fill="none"><path d = "M 23.716202 24.082764 L 23.678665 24.17659 23.612991 24.44867 23.52855 24.833328 23.415985 25.339966 23.294006 25.884125 23.190811 26.428253 23.153275 26.89737 23.153275 27.085007 23.228348 27.131912 23.425354 26.859833 23.444122 26.747253 23.444122 26.747253 " /></g><g stroke="rgb(8, 8, 8)" stroke-width="0.254" fill="none"><path d = "M 24.532394 24.49559 L 24.551163 24.49559 24.569931 24.655075 24.569931 24.936523 24.513626 25.368103 24.447952 25.846588 24.401047 26.268768 24.401047 26.550247 24.419815 26.662811 24.457352 26.644058 24.532394 26.400116 24.532394 26.400116 " /></g><g stroke="rgb(8, 8, 8)" stroke-width="0.254" fill="none"><path d = "M 25.386124 24.401764 L 25.386124 24.39238 25.376755 24.523727 25.292313 24.86148 25.142197 25.40564 25.039017 25.893494 25.020248 26.184341 25.020248 26.334442 25.020248 26.334442 " /></g><g stroke="rgb(8, 8, 8)" stroke-width="0.254" fill="none"><path d = "M 4.6056824 3.4330597 L 4.6056824 3.4330597 4.568161 3.451828 4.5306244 3.451828 4.511856 3.451828 4.511856 3.451828 4.511856 3.4143066 4.511856 3.3580017 4.4649506 3.3392487 4.3711395 3.3580017 4.2866974 3.4143066 4.2210236 3.4330597 4.1553497 3.4330597 4.0615387 3.4330597 3.9489594 3.451828 3.8269958 3.5081177 3.742569 3.564392 3.667511 3.601944 3.592453 3.6394653 3.5174103 3.695755 3.4517365 3.7332764 3.3766785 3.7895813 3.2734833 3.8740234 3.179657 3.9678345 3.085846 4.0710297 3.010788 4.183609 2.9544983 4.314972 2.93573 4.4275513 2.93573 4.6245728 2.8982086 4.8309784 2.841919 5.0655212 2.757492 5.290695 2.7105713 5.4877167 2.682434 5.628433 2.6542816 5.8442383 2.6355133 6.0693817 2.607376 6.313324 2.579239 6.5666504 2.5604706 6.866852 2.522934 7.1389313 2.4854126 7.3734894 2.4666595 7.579895 2.4478912 7.814438 2.438507 8.0959015 2.4009857 8.414871 2.3916016 8.733871 2.3728333 9.015335 2.335312 9.249878 2.2977753 9.465668 2.269638 9.662689 2.2508698 9.878464 2.2414856 10.113022 2.2227325 10.338196 2.2133484 10.544586 2.185196 10.750992 2.1476746 10.957397 2.1289062 11.163803 2.091385 11.370209 2.0820007 11.56723 2.0726166 11.773636 2.0726166 12.008179 2.0726166 12.270889 2.0538635 12.505417 2.016327 12.768127 1.9881897 12.993286 1.9788055 13.180923 1.9788055 13.387344 1.9506531 13.546829 1.9319 13.762619 1.9131317 13.997162 1.8755951 14.231705 1.8380737 14.43811 1.8286896 14.635132 1.8286896 14.832153 1.8286896 15.029175 1.8193207 15.263718 1.781784 15.517044 1.763031 15.71405 1.763031 15.845413 1.781784 15.976761 1.781784 16.108109 1.781784 16.239456 1.781784 16.41771 1.781784 16.549042 1.781784 16.699173 1.781784 16.849289 1.781784 16.99939 1.781784 17.130737 1.8005524 17.26207 1.8193207 17.393433 1.8380737 17.52478 1.8755951 17.68428 1.9131317 17.806244 1.9319 17.956345 1.9506531 18.11583 2.0069427 18.200272 2.0820007 18.284714 2.1664429 18.359772 2.2790222 18.43483 2.4572754 18.519272 2.5886078 18.603714 2.7293396 18.678757 2.9451141 18.735062 3.1515198 18.810104 3.3110046 18.866394 3.5080261 18.90393 3.742569 18.90393 3.9583435 18.90393 4.1928864 18.90393 4.4368134 18.90393 4.661972 18.90393 4.896515 18.90393 5.1216736 18.90393 5.506317 18.866394 5.750244 18.847641 5.975403 18.838257 6.2756195 18.838257 6.500778 18.838257 6.744705 18.838257 6.988632 18.819504 7.307602 18.800735 7.6078186 18.772583 7.8611298 18.735062 8.217636 18.70691 8.4897 18.669388 8.780533 18.65062 9.033844 18.65062 9.296524 18.65062 9.624893 18.631851 9.91571 18.622467 10.225311 18.613098 10.50676 18.613098 10.7413025 18.613098 11.060287 18.613098 11.332352 18.613098 11.576279 18.613098 11.792053 18.669388 12.026596 18.68814 12.326813 18.68814 12.617645 18.678757 12.880325 18.660004 13.124252 18.64125 13.340042 18.622467 13.583969 18.59433 13.846649 18.575562 14.062424 18.575562 14.221909 18.575562 14.41893 18.575562 14.615952 18.556793 14.784821 18.519272 14.972443 18.48175 15.131943 18.462967 15.282043 18.444214 15.497818 18.416077 15.722977 18.37854 15.873093 18.369156 15.9387665 18.369156 15.995056 18.369156 16.051346 18.359772 16.107635 18.32225 16.135788 18.21904 16.135788 18.21904 " /></g><g stroke="rgb(8, 8, 8)" stroke-width="0.254" fill="none"><path d = "M 4.586914 3.3955383 L 4.586914 3.386139 4.6056824 3.3486176 4.6432037 3.301712 4.7182617 3.2360535 4.830841 3.1516113 4.990326 3.0671692 5.1216736 3.0108643 5.2061005 3.0014954 5.26239 3.0765533 5.5438538 3.132843 5.825302 3.132843 6.050461 3.132843 6.3788147 3.132843 6.660263 3.1140594 7.0261536 3.0671692 7.401413 3.0014954 7.6828766 2.973343 8.06752 2.9639587 8.395889 2.926422 8.771149 2.8607635 9.118271 2.8044739 9.427872 2.7387848 9.746841 2.7106476 9.990768 2.7106476 10.253464 2.7106476 10.553665 2.7106476 10.797592 2.6731262 11.069672 2.6449738 11.322968 2.6449738 11.566895 2.6449738 11.867111 2.6449738 12.120422 2.6449738 12.373718 2.6168365 12.580124 2.6168365 12.711456 2.5980682 12.927246 2.5699158 13.152405 2.5417786 13.386948 2.5230103 13.555817 2.513626 13.687164 2.513626 13.884171 2.513626 14.118713 2.504242 14.334503 2.4760895 14.569031 2.4385834 14.775436 2.4385834 14.963058 2.4385834 15.10379 2.4385834 15.300812 2.410431 15.497818 2.3916473 15.722977 2.3822784 15.929382 2.3728943 16.145157 2.344757 16.370316 2.3072205 16.576721 2.269699 16.726822 2.269699 16.85817 2.269699 16.970749 2.2884521 17.12085 2.3072205 17.317871 2.3072205 17.467972 2.3072205 17.608704 2.3259888 17.740051 2.3822784 17.81511 2.4573364 17.96521 2.5605316 18.068405 2.6637268 18.265427 2.7669373 18.340485 2.8795319 18.378006 3.0296326 18.396774 3.226654 18.453064 3.4236908 18.509354 3.5737915 18.575012 3.7801971 18.640701 4.005356 18.659454 4.249298 18.678223 4.493225 18.678223 4.727768 18.678223 5.0092316 18.659454 5.3188324 18.631302 5.600296 18.603165 5.919281 18.575012 6.294571 18.509354 6.6698456 18.453064 7.054489 18.424911 7.364105 18.378006 7.6361847 18.349869 7.9364014 18.321716 8.302307 18.293564 8.733871 18.22789 9.137283 18.134079 9.503204 18.07779 9.7565 18.040268 10.066116 18.002731 10.385101 17.899536 10.7322235 17.843246 11.107498 17.777573 11.492172 17.749435 11.811157 17.693146 12.130142 17.636856 12.383453 17.59932 12.721207 17.561798 13.05896 17.505508 13.42485 17.477371 13.753235 17.43045 14.07222 17.402313 14.363052 17.37416 14.682037 17.355392 14.925964 17.346024 15.160522 17.346024 15.413849 17.33664 15.657776 17.308487 15.87355 17.261581 16.070572 17.242828 16.286362 17.224045 16.436462 17.214676 16.652252 17.177155 16.792984 17.158386 16.961868 17.139633 17.177643 17.111465 17.327759 17.073944 17.47786 17.036423 17.618607 17.027039 17.778091 16.998901 17.871918 16.980133 17.975128 16.970749 18.059555 16.942612 18.134613 16.923843 18.21904 16.895706 18.294098 16.886322 18.369156 16.876938 18.42546 16.85817 18.444214 16.811264 18.462967 16.754974 18.48175 16.6893 18.48175 16.614243 18.462967 16.586105 18.294098 16.511047 18.294098 16.511047 18.294098 " /></g><g stroke="rgb(8, 8, 8)" stroke-width="0.254" fill="none"><path d = "M 21.637375 0.45100403 L 21.637375 0.45100403 21.618607 0.5072937 21.59047 0.5823517 21.581085 0.676178 21.581085 0.7887573 21.571701 0.94825745 21.524796 1.1077576 21.440353 1.3235321 21.36531 1.6519012 21.2621 2.0459442 21.196426 2.4024506 21.130768 2.730835 21.046326 3.0779724 20.933746 3.4157104 20.821167 3.8003845 20.764877 4.175659 20.717972 4.5790863 20.671066 5.029419 20.62416 5.517273 20.567871 5.986374 20.52095 6.389801 20.436508 6.7369385 20.380234 7.1403503 20.352081 7.600067 20.333328 8.097321 20.305176 8.528885 20.277023 8.960449 20.239502 9.354507 20.192596 9.739166 20.136307 10.133194 20.09877 10.564774 20.070633 10.986969 20.070633 11.409149 20.070633 11.784424 20.033096 12.140945 19.976822 12.403641 19.920532 12.741394 19.882996 13.107285 19.807938 13.482559 19.704742 13.951675 19.667221 14.214371 19.601547 14.655304 19.57341 15.030594 19.554642 15.443405 19.535873 15.846832 19.498337 16.19397 19.432678 16.55986 19.367004 16.906982 19.348236 17.225983 19.348236 17.507431 19.310715 17.74199 19.24504 18.004684 19.20752 18.342422 19.169998 18.63327 19.123093 18.952255 19.104324 19.261871 19.104324 19.571472 19.094925 19.8154 19.085556 20.078094 19.066788 20.331406 19.03865 20.565948 19.019882 20.819275 18.99173 21.006912 18.972977 21.19455 18.972977 21.400955 18.99173 21.588593 18.99173 21.748077 18.99173 21.907578 18.99173 22.010773 18.99173 22.067062 18.99173 22.08583 18.99173 22.123367 19.010498 22.14212 19.029266 22.14212 19.019882 22.067062 18.972977 21.907578 18.972977 21.907578 " /></g></svg>
