<?xml version="1.0" encoding="utf-8"?><!DOCTYPE svg PUBLIC "-//W3C//DTD SVG 1.1//EN" "http://www.w3.org/Graphics/SVG/1.1/DTD/svg11.dtd"><svg version="1.1" xmlns="http://www.w3.org/2000/svg" xmlns:ss="http://ns.smallsketch.app/SmallSketch/1.0" x="0.0mm" y="0.0mm" width="29.148933mm" height="34.30049mm"  viewBox="0.0 0.0 29.148933 34.30049"><ss:strokes><ss:stroke color="rgb(8, 8, 8)" strokewidth="0.254">3.0396729,0.8256073,3.0396729,0.8256073,2.973999,0.8256073,2.9083328,0.92881775,2.8520355,1.1164551,2.80513,1.3134766,2.7769852,1.5292664,2.7300797,1.8670044,2.6174927,2.3454895,2.4017181,3.002243,2.2891388,3.7621765,2.1577911,4.606552,2.06398,5.5166016,1.9701614,6.511093,1.8857269,7.449295,1.7919083,8.312439,1.6887054,9.213104,1.566742,10.104385,1.4354095,11.033203,1.3228302,11.886963,1.2477722,12.750107,1.1914825,13.519424,1.1539612,14.30751,1.0882797,15.123749,0.99446106,15.911835,0.9381714,16.69992,0.8818817,17.487991,0.8537445,18.276093,0.7786865,19.04541,0.70363617,19.711533,0.60043335,20.377655,0.51599884,21.109451,0.45970917,21.888138,0.42218018,22.704376,0.42218018,23.529999,0.42218018,24.31807,0.39404297,25.143692,0.33774567,25.931778,0.281456,26.65419,0.20640564,27.357834,0.15011597,28.03334,0.08444214,28.661926,0.046913147,29.149796,0.009384155,29.403107,0.0,29.393723,0.0,29.393723</ss:stroke><ss:stroke color="rgb(8, 8, 8)" strokewidth="0.254">2.9927673,0.5253906,2.9927673,0.5066223,2.9927673,0.48786926,3.0302963,0.48786926,3.0865784,0.562912,3.1897812,0.58169556,3.461853,0.54415894,3.790207,0.43156433,4.193619,0.318985,4.643944,0.22517395,5.1036453,0.19702148,5.61026,0.2157898,6.2200623,0.27207947,6.867401,0.27207947,7.51474,0.25331116,8.133942,0.22517395,8.706223,0.22517395,9.194061,0.28146362,9.71006,0.30021667,10.226051,0.29084778,10.695137,0.28146362,11.145462,0.28146362,11.605164,0.28146362,12.074249,0.28146362,12.571472,0.28146362,13.106232,0.28146362,13.575317,0.27207947,13.997498,0.29084778,14.41967,0.32836914,14.841843,0.34713745,15.254639,0.3846588,15.629906,0.40342712,15.967651,0.44096375,16.286629,0.4597168,16.699425,0.4784851,16.990257,0.4784851,17.496864,0.4784851,17.8909,0.4784851,18.247398,0.4784851,18.566383,0.4784851,18.829063,0.4784851,19.176186,0.4784851,19.49517,0.4784851,19.823524,0.49725342,20.104973,0.5347748,20.33014,0.60983276,20.545914,0.6286011,20.77108,0.6192169,21.061913,0.562912,21.21202,0.5347748,21.371506,0.5347748,21.45594,0.5347748,21.53099,0.5347748,21.615433,0.5066223,21.690483,0.5066223,21.728012,0.5066223,21.728012,0.5066223,21.681099,0.5066223,21.56852,0.5253906,21.56852,0.5253906</ss:stroke><ss:stroke color="rgb(8, 8, 8)" strokewidth="0.254">21.925026,0.2345581,21.925026,0.2345581,21.962555,0.17826843,21.981316,0.16888428,21.971931,0.243927,21.95317,0.44096375,21.981316,0.6473541,22.187714,0.7693329,22.431633,0.8631439,22.713089,0.9663391,22.957008,1.0789337,23.191559,1.2290344,23.444862,1.3791504,23.72631,1.510498,23.970238,1.6230774,24.298592,1.7262878,24.551903,1.8107147,24.786438,1.9139252,24.936546,2.0265045,25.049133,2.1390839,25.086655,2.1953888,25.124184,2.2329102,25.124184,2.2329102,25.124184,2.2516785,25.124184,2.2891998,25.086655,2.3267365,25.086655,2.4205627,25.049133,2.6269531,25.020988,2.842743,24.955315,3.0772858,24.908401,3.415039,24.880257,3.7058716,24.880257,4.0061035,24.861496,4.353241,24.842735,4.68161,24.842735,4.981827,24.861496,5.225754,24.861496,5.4978333,24.833351,5.8262177,24.786438,6.1639557,24.748917,6.417282,24.739532,6.5204773,24.739532,6.576767,24.739532,6.6330566,24.795822,6.670578,24.852112,6.670578,24.842735,6.670578,24.842735,6.6893463,24.842735,6.6893463,24.842735,6.6893463,24.899025,6.726883,24.917786,6.745636,25.00222,6.7831726,25.086655,6.8394623,25.171097,6.895752,25.283669,6.97081,25.433777,7.055252,25.649559,7.149063,25.762138,7.2335052,25.893486,7.3367004,26.006065,7.4398956,26.212456,7.533737,26.512672,7.590027,26.803505,7.6650696,27.038048,7.758896,27.244446,7.871475,27.38517,7.9653015,27.535278,8.059113,27.69477,8.162323,27.91993,8.274902,28.135704,8.40625,28.276436,8.518829,28.360863,8.62204,28.445305,8.706482,28.520363,8.762772,28.576645,8.847214,28.651703,8.903503,28.736137,8.959778,28.801811,9.016083,28.876862,9.091141,28.980057,9.166199,29.036346,9.222488,29.073875,9.278778,29.111404,9.335068,29.130165,9.410126,29.148933,9.522705,29.148933,9.6259,29.148933,9.776016,29.148933,9.982422,29.148933,10.207596,29.13955,10.451523,29.10202,10.8267975,29.073875,11.211456,29.036346,11.586746,29.02697,11.97139,28.98944,12.356064,28.923775,12.759491,28.876862,13.125381,28.811188,13.481903,28.773666,13.791504,28.726753,14.119873,28.679848,14.457626,28.614174,14.804749,28.5485,15.16127,28.501595,15.499023,28.454681,15.799255,28.407776,16.146378,28.360863,16.493515,28.342102,16.859406,28.342102,17.206543,28.342102,17.516144,28.276436,17.853897,28.210762,18.219788,28.173233,18.585693,28.163849,18.914062,28.126328,19.204895,28.088799,19.523895,28.05127,19.880402,28.01374,20.311966,27.95745,20.771683,27.891777,21.203262,27.854256,21.578537,27.816734,21.91629,27.788582,22.291565,27.760437,22.676239,27.741676,23.070282,27.722916,23.436172,27.69477,23.773926,27.685387,24.083527,27.676003,24.336838,27.657242,24.637054,27.657242,24.937286,27.657242,25.246887,27.657242,25.490814,27.657242,25.762894,27.657242,26.034988,27.600952,26.278915,27.572807,26.49469,27.544662,26.748001,27.544662,27.048233,27.544662,27.29216,27.535278,27.517334,27.535278,27.667435,27.525902,27.901993,27.507133,28.098999,27.469612,28.30542,27.450844,28.511826,27.450844,28.7276,27.450844,28.877716,27.44146,29.187317,27.422699,29.440628,27.357025,29.778381,27.338264,30.012924,27.31012,30.134903,27.300735,30.32254,27.225685,30.697815,27.150627,31.06372,27.103722,31.270111,27.047432,31.34517,27.009903,31.1763,27.000526,31.073105,27.000526,31.073105</ss:stroke><ss:stroke color="rgb(8, 8, 8)" strokewidth="0.254">0.30021667,28.952774,0.318985,28.934006,0.318985,28.924622,0.318985,28.924622,0.281456,28.99968,0.23454285,29.112259,0.23454285,29.328049,0.25331116,29.562592,0.27207947,29.825287,0.29083252,30.172424,0.29083252,30.435135,0.27207947,30.679047,0.27207947,30.791626,0.42218018,30.829163,0.5910492,30.829163,0.84436035,30.829163,1.107048,30.829163,1.4260254,30.829163,1.7825317,30.829163,2.2140808,30.829163,2.7769852,30.829163,3.3117447,30.829163,3.8840332,30.829163,4.4844513,30.819778,5.028595,30.810394,5.544586,30.810394,6.051201,30.876068,6.5578156,30.932373,7.1207123,30.932373,7.692993,30.922974,8.2558975,30.90422,8.724976,30.90422,9.08149,30.96051,9.419228,31.0168,9.794495,31.073105,10.216675,31.110626,10.6107025,31.129395,10.985977,31.148148,11.361237,31.148148,11.736511,31.148148,12.139923,31.166916,12.5527115,31.223206,12.974884,31.3264,13.397064,31.382706,13.819244,31.438995,14.241417,31.438995,14.719879,31.438995,15.217117,31.420227,15.686203,31.420227,16.11776,31.438995,16.511787,31.495285,16.868294,31.532806,17.290474,31.532806,17.750168,31.532806,18.200493,31.532806,18.556992,31.532806,18.810303,31.551575,19.026085,31.551575,19.223099,31.532806,19.448257,31.514053,19.710953,31.495285,19.945488,31.4859,20.067451,31.4859,20.123741,31.4859,20.18003,31.4859,20.255081,31.4859,20.367668,31.50467,20.574059,31.50467,20.677261,31.523438,20.77108,31.54219,20.82737,31.54219,20.84613,31.560959,20.84613,31.579727,20.836746,31.59848,20.78984,31.636017,20.77108,31.692307,20.77108,31.692307,20.78984,31.692307,20.82737,31.692307,20.883652,31.664154,20.90242,31.654785,20.95871,31.645386,21.061913,31.60788,21.277687,31.570343,21.521614,31.50467,21.812447,31.438995,22.131424,31.382706,22.487923,31.3264,22.900719,31.260742,23.351044,31.195053,23.83889,31.110626,24.270454,31.0168,24.626953,30.913605,24.936546,30.810394,25.161705,30.7072,25.386871,30.613373,25.649559,30.500793,25.884102,30.416351,25.97792,30.360062,25.97792,30.360062</ss:stroke><ss:stroke color="rgb(8, 8, 8)" strokewidth="0.254">21.943794,0.0,21.943794,0.0,21.887497,0.028137207,21.859352,0.22517395,21.840591,0.43156433,21.831207,0.6755066,21.831207,0.92881775,21.82183,1.3134766,21.746773,1.8107147,21.652954,2.4487,21.58728,3.161728,21.549759,3.809082,21.512238,4.4470673,21.465324,5.160095,21.39965,5.8825073,21.333977,6.6799774,21.277687,7.4023895,21.230782,8.077881,21.183868,8.772156,21.155724,9.428894,21.136963,10.0199585,21.118202,10.620392,21.099434,11.27713,21.090057,11.858826,21.090057,12.440506,21.090057,13.03157,21.061913,13.62262,21.015007,14.213684,20.968094,14.767227,20.930565,15.330139,20.921188,15.883682,20.921188,16.48413,20.921188,17.093948,20.893044,17.600586,20.855515,18.116592,20.799225,18.670135,20.724167,19.204895,20.658493,19.702148,20.592827,20.161865,20.545914,20.640335,20.527153,21.071915,20.527153,21.494095,20.508385,21.944427,20.423958,22.451065,20.311378,22.910782,20.264465,23.332962,20.208176,23.727005,20.170647,24.121063,20.086212,24.524475,19.992401,24.965439,19.936104,25.359467,19.879814,25.69722,19.79538,26.063126,19.729706,26.466553,19.6828,26.888748,19.66404,27.320297,19.635887,27.695587,19.551453,28.136536,19.504547,28.389847,19.457634,28.765121,19.43888,29.018448,19.429497,29.337433,19.410736,29.712708,19.391968,29.937866,19.354439,30.16304,19.326294,30.37883,19.29815,30.632141,19.270004,30.951126,19.270004,31.12001,19.270004,31.241959,19.270004,31.3358,19.260628,31.420227,19.232475,31.50467,19.194954,31.54219,19.11052,31.532806,19.054222,31.420227,19.054222,31.420227</ss:stroke><ss:stroke color="rgb(8, 8, 8)" strokewidth="0.254">1.3603516,30.801025,1.3603516,30.791626,1.3603516,30.791626,1.3415833,30.810394,1.3228302,30.885468,1.3040619,30.988663,1.2946777,31.204453,1.2946777,31.44838,1.3697357,31.729828,1.4823151,32.020676,1.5948944,32.349045,1.6324158,32.658646,1.6511841,32.902573,1.6699524,33.127747,1.7262421,33.212173,1.8200531,33.230957,1.9701614,33.230957,2.1765594,33.221573,2.3172836,33.221573,2.5142975,33.259094,2.7207031,33.296616,2.8708038,33.315384,3.1147308,33.315384,3.4524689,33.315384,3.7714462,33.334152,4.0998077,33.334152,4.4281616,33.334152,4.690857,33.334152,4.962921,33.352905,5.197464,33.371674,5.338188,33.40921,5.4226227,33.40921,5.4789124,33.40921,5.544586,33.40921,5.600876,33.40921,5.638405,33.40921,5.638405,33.324768,5.638405,33.1559,5.638405,32.92134,5.6290283,32.677414,5.619644,32.433487,5.619644,32.170776,5.6571655,31.992523,5.713455,31.936234,5.769745,31.964386,5.844803,32.06758,5.947998,32.152023,6.1544037,32.208313,6.3795624,32.227066,6.595337,32.264603,6.8298798,32.28337,7.0925674,32.30214,7.3927765,32.30214,7.768051,32.30214,8.152702,32.292755,8.481064,32.292755,8.715599,32.349045,8.959526,32.405334,9.203453,32.405334,9.550568,32.405334,9.888313,32.405334,10.216675,32.405334,10.488739,32.442856,10.704521,32.499146,10.929672,32.55545,11.154846,32.574203,11.370621,32.592987,11.577011,32.61174,11.811562,32.61174,12.046097,32.61174,12.299408,32.61174,12.543335,32.583588,12.768494,32.55545,12.9655075,32.536682,13.1719055,32.527298,13.312637,32.527298,13.509644,32.527298,13.716049,32.546066,13.894295,32.546066,14.006882,32.564835,14.044403,32.583588,14.063171,32.639893,14.100693,32.714935,14.100693,32.874435,14.119461,33.015167,14.119461,33.212173,14.119461,33.456116,14.138222,33.709427,14.203888,33.972122,14.260185,34.178528,14.353996,34.26297,14.504105,34.30049,14.644836,34.30049,14.851227,34.26297,15.08577,34.216064,15.310936,34.15976,15.50795,34.10347,15.629906,34.084717,15.733101,34.084717,15.864456,34.084717,16.023941,34.084717,16.089615,34.10347,16.164665,34.141006,16.220955,34.178528,16.277245,34.19728,16.352295,34.15976,16.427353,34.037796,16.511787,33.822006,16.586845,33.52179,16.643135,33.26848,16.718185,33.1559,16.755707,33.127747,16.82138,33.090225,16.9152,33.04332,16.999634,32.949493,17.055923,32.874435,17.055923,32.855667,17.074692,32.855667,17.074692,32.855667,17.130974,32.855667,17.187271,32.855667,17.26233,32.855667,17.33738,32.855667,17.39367,32.855667,17.43119,32.855667,17.43119,32.855667,17.449959,32.874435,17.449959,32.89319,17.46872,32.89319,17.506248,32.911972,17.543777,32.911972,17.581299,32.930725,17.581299,32.930725,17.581299,32.949493,17.581299,32.949493,17.600067,32.96826,17.618828,32.987015,17.693886,32.987015,17.768936,32.987015,17.919044,32.987015,18.069153,32.96826,18.219254,32.949493,18.369362,32.949493,18.585136,32.949493,18.838448,32.94011,19.101135,32.911972,19.354439,32.89319,19.58899,32.89319,19.842293,32.89319,20.076828,32.89319,20.414574,32.88382,20.696022,32.88382,20.949333,32.902573,21.165108,32.92134,21.371506,32.92134,21.62481,32.92134,21.878113,32.92134,22.131424,32.92134,22.375343,32.92134,22.61927,32.92134,22.938248,32.92134,23.257225,32.911972,23.585587,32.902573,23.85765,32.88382,23.998383,32.874435,24.101578,32.86505,24.195396,32.86505,24.289207,32.86505,24.37365,32.92134,24.42994,33.005783,24.4487,33.165268,24.4487,33.352905,24.4487,33.50302,24.4487,33.66252,24.467468,33.79387,24.551903,33.83139,24.739532,33.83139,24.92717,33.79387,25.114807,33.71881,25.255524,33.643753,25.358727,33.55931,25.490067,33.456116,25.59327,33.362305,25.705849,33.240326,25.818428,33.090225,25.912247,32.88382,26.006065,32.76184,26.043594,32.55545,26.043594,32.31151,26.081116,32.058212,26.156166,31.879944,26.174934,31.767365,26.193703,31.664154,26.249985,31.551575,26.287514,31.429611,26.325043,31.28888,26.343803,31.204453,26.325043,31.157532,26.325043,31.12001,26.325043,31.091858,26.306274,31.06372,26.27813,31.026184,26.268753,30.979279,26.259369,30.932373,26.249985,30.913605,26.22184,30.913605,26.212456,30.913605,26.20308,30.932373,26.20308,30.932373,26.20308,31.007416,26.20308,31.026184,26.20308,31.026184</ss:stroke><ss:stroke color="rgb(8, 8, 8)" strokewidth="0.254">22.441025,22.601181,22.441025,22.601181,22.394112,22.591797,22.394112,22.591797,22.384727,22.666855,22.347206,22.82634,22.30967,23.060883,22.262772,23.389267,22.215858,23.73639,22.187714,24.167969,22.187714,24.627686,22.187714,25.068634,22.150185,25.53772,22.075134,26.044357,22.018845,26.588516,21.981316,27.048233,21.934402,27.479797,21.887497,27.864456,21.849976,28.24913,21.840591,28.633774,21.840591,29.0466,21.831207,29.41249,21.793686,29.665802,21.765541,29.815918,21.718628,30.012924,21.690483,30.16304,21.671722,30.360062,21.662338,30.510178,21.662338,30.65091,21.652954,30.74472,21.652954,30.819778,21.652954,30.894836,21.643578,30.988663,21.62481,31.091858,21.596664,31.195053,21.577904,31.251358,21.577904,31.251358,21.652954,31.148148,21.671722,31.06372,21.671722,31.0168,21.671722,31.0168</ss:stroke><ss:stroke color="rgb(8, 8, 8)" strokewidth="0.254">23.163414,22.694992,23.163414,22.685608,23.163414,22.704376,23.163414,22.723145,23.15403,22.788818,23.1165,22.929535,23.09774,23.126572,23.078972,23.314209,23.060211,23.539368,23.032066,23.89589,22.975777,24.42128,22.938248,24.993576,22.910103,25.52835,22.872574,26.025589,22.8069,26.532227,22.713089,27.038849,22.638031,27.536087,22.591125,28.023956,22.572365,28.502426,22.54422,28.952774,22.54422,29.318665,22.516075,29.62828,22.487923,29.947266,22.441025,30.275635,22.394112,30.641525,22.375343,30.932373,22.375343,31.044952,22.394112,31.06372,22.469162,30.96051,22.41288,30.90422,22.41288,30.90422</ss:stroke><ss:stroke color="rgb(8, 8, 8)" strokewidth="0.254">24.223541,23.09842,24.223541,23.060883,24.223541,23.023361,24.223541,23.023361,24.223541,23.060883,24.223541,23.164093,24.223541,23.24852,24.204773,23.35173,24.167252,23.558136,24.110954,23.802063,24.017143,24.20549,23.960854,24.740265,23.923325,25.27504,23.913948,25.791046,23.885796,26.307053,23.85765,26.813675,23.801361,27.282776,23.72631,27.723724,23.641876,28.098999,23.59497,28.464905,23.557442,28.915253,23.538673,29.281143,23.529297,29.496933,23.510529,29.731476,23.501152,29.975403,23.463623,30.219345,23.444862,30.435135,23.444862,30.500793,23.444862,30.557083,23.482384,30.425735,23.501152,30.341293,23.501152,30.341293</ss:stroke><ss:stroke color="rgb(8, 8, 8)" strokewidth="0.254">25.199234,22.798187,25.199234,22.798187,25.293053,22.694992,25.311813,22.666855,25.293053,22.741898,25.246147,22.938934,25.208618,23.173477,25.18985,23.501846,25.152328,23.886505,25.114807,24.346222,25.077278,24.852844,25.030365,25.340714,24.98346,25.837952,24.94593,26.353973,24.88964,26.851212,24.852112,27.329681,24.823967,27.789413,24.795822,28.19284,24.777061,28.568115,24.748917,28.905853,24.702003,29.262375,24.664482,29.553223,24.655098,29.712708,24.655098,29.919113,24.63633,30.153656,24.617577,30.416351,24.608192,30.613373,24.608192,30.697815,24.608192,30.697815,24.608192,30.53833,24.608192,30.53833</ss:stroke><ss:stroke color="rgb(8, 8, 8)" strokewidth="0.254">26.428238,23.079666,26.428238,23.079666,26.428238,23.013977,26.409477,23.013977,26.400093,23.013977,26.381332,23.070282,26.353188,23.173477,26.287514,23.398651,26.22184,23.670715,26.165558,24.10228,26.090492,24.68396,26.01545,25.284424,25.97792,25.809814,25.949776,26.297668,25.912247,26.729248,25.874718,27.160812,25.837189,27.60176,25.818428,27.995804,25.799667,28.408615,25.762138,28.77452,25.696472,29.112259,25.63079,29.421875,25.59327,29.69394,25.583885,29.95665,25.583885,30.191193,25.583885,30.341293,25.583885,30.48204,25.565125,30.519547,25.565125,30.519547,25.565125,30.519547</ss:stroke><ss:stroke color="rgb(8, 8, 8)" strokewidth="0.254">27.084953,22.816956,27.0662,22.816956,26.991135,22.835724,26.981758,22.892029,26.953613,22.98584,26.934853,23.145325,26.925468,23.286057,26.925468,23.548752,26.906708,23.877121,26.878563,24.308685,26.859795,24.74965,26.803505,25.096786,26.77536,25.303177,26.737831,25.631561,26.728455,25.866104,26.728455,26.081894,26.728455,26.33519,26.728455,26.579132,26.728455,26.785538,26.728455,27.010696,26.70031,27.23587,26.681541,27.45166,26.681541,27.592377,26.681541,27.742508,26.681541,27.958282,26.681541,28.183441,26.681541,28.389847,26.66278,28.539963,26.64402,28.67131,26.634636,28.877716,26.634636,28.99968,26.625252,29.112259,26.587723,29.243607,26.550201,29.374954,26.540817,29.487534,26.522057,29.562592,26.512672,29.62828,26.484528,29.787766,26.484528,29.872208,26.484528,29.947266,26.503296,29.947266,26.503296,29.815918,26.503296,29.815918</ss:stroke><ss:stroke color="rgb(8, 8, 8)" strokewidth="0.254">4.6345673,3.6026764,4.6720886,3.6026764,4.690857,3.6026764,4.690857,3.6026764,4.6720886,3.658966,4.6345673,3.7621765,4.615799,3.9122925,4.606415,4.137451,4.606415,4.4001465,4.606415,4.7941895,4.521988,5.2632904,4.44693,5.779297,4.3906403,6.351593,4.3249664,6.895752,4.278061,7.3367004,4.278061,7.8151855,4.278061,8.340591,4.2499084,8.865967,4.1560974,9.353836,4.0998077,9.804169,4.0622787,10.27327,4.0247498,10.742371,3.9403152,11.370956,3.9027863,11.840042,3.8840332,12.29039,3.874649,12.759491,3.8183594,13.181671,3.7620697,13.62262,3.7151566,14.007294,3.6682434,14.401321,3.6119537,14.79538,3.555664,15.226944,3.5462875,15.620987,3.5462875,15.949356,3.5462875,16.183899,3.5369034,16.559189,3.4712372,17.000137,3.4055634,17.39418,3.377411,17.628723,3.377411,17.741318,3.4149399,17.76007,3.4524689,17.713165,3.4524689,17.459854,3.4524689,17.459854</ss:stroke><ss:stroke color="rgb(8, 8, 8)" strokewidth="0.254">4.4000244,3.640213,4.4187775,3.6120605,4.4938354,3.5557709,4.606415,3.480713,4.718994,3.4056702,4.9160156,3.3493652,5.122406,3.321228,5.375717,3.321228,5.685318,3.321228,6.0699615,3.321228,6.5109024,3.321228,6.979988,3.339981,7.430313,3.3587494,7.8712463,3.3775177,8.330948,3.3775177,8.809418,3.3962708,9.240974,3.3962708,9.663147,3.3775177,10.085327,3.339981,10.469971,3.3024597,10.79834,3.2930756,11.136078,3.2930756,11.464432,3.2930756,11.830322,3.3118439,12.233734,3.330597,12.5902405,3.3493652,12.890457,3.3493652,13.134384,3.3493652,13.340775,3.3681335,13.603455,3.4056702,13.950584,3.4056702,14.250793,3.4056702,14.522873,3.4056702,14.757416,3.4056702,14.945045,3.4244232,15.142059,3.4431763,15.442276,3.4619446,15.686203,3.480713,15.930122,3.4994812,16.155281,3.4994812,16.277245,3.4994812,16.483643,3.5182343,16.718185,3.5182343,16.952728,3.5557709,17.16851,3.574524,17.26233,3.574524,17.35614,3.574524,17.449959,3.574524,17.590683,3.574524,17.731407,3.574524,17.862755,3.5933075,17.94719,3.6120605,17.98471,3.6308289,18.041008,3.649582,18.097298,3.6683502,18.134819,3.6871185,18.15358,3.7058716,18.15358,3.7434082,18.15358,3.809082,18.15358,3.959198,18.144203,4.203125,18.125435,4.5408783,18.07853,4.8692474,18.02224,5.235138,17.994095,5.610428,17.956566,6.0795135,17.919044,6.6236725,17.862755,7.1209106,17.815842,7.5993958,17.768936,8.049744,17.731407,8.537598,17.665741,9.006699,17.600067,9.494553,17.543777,9.89798,17.52501,10.292023,17.52501,10.667297,17.52501,11.014435,17.515633,11.370956,17.515633,11.605499,17.515633,11.933884,17.487488,12.2341,17.449959,12.571854,17.421814,12.881454,17.403046,13.14415,17.384285,13.416229,17.346756,13.660156,17.33738,13.894699,17.327995,14.091736,17.327995,14.298126,17.318611,14.448242,17.29985,14.607742,17.271706,14.804749,17.26233,15.011154,17.26233,15.114365,17.26233,15.292618,17.26233,15.423965,17.24356,15.574081,17.215416,15.686661,17.206032,15.846161,17.206032,15.930603,17.206032,16.080704,17.187271,16.23082,17.16851,16.3434,17.159126,16.521667,17.149742,16.606094,17.140366,16.75621,17.121597,16.887558,17.11222,17.037659,17.102837,17.18779,17.102837,17.33789,17.084068,17.45047,17.074692,17.534912,17.074692,17.55368,17.084068,17.459854,17.084068,17.431717,17.084068,17.431717</ss:stroke><ss:stroke color="rgb(8, 8, 8)" strokewidth="0.254">3.0396729,16.981369,3.0396729,16.981369,3.0209122,17.018906,3.0865784,17.037659,3.3023605,17.056442,3.5275269,17.056442,3.83712,17.056442,4.2499084,17.018906,4.718994,17.000137,5.281906,16.962616,5.8072815,16.943848,6.3138885,16.981369,6.8486404,17.000137,7.3927765,17.018906,7.9838257,17.018906,8.574875,17.009521,9.090866,17.000137,9.578712,17.000137,10.038422,17.000137,10.507507,17.018906,10.967209,17.018906,11.464432,17.018906,11.96167,17.018906,12.440132,17.018906,13.031174,17.037659,13.453354,17.056442,13.744186,17.075195,14.194504,17.093948,14.55101,17.093948,14.916901,17.093948,15.273407,17.093948,15.536095,17.093948,15.7706375,17.131485,16.014557,17.169006,16.267868,17.225296,16.474258,17.225296,16.577461,17.262833,16.69004,17.300354,16.840149,17.356644,16.980873,17.39418,17.130974,17.45047,17.26233,17.506775,17.327995,17.525528,17.346756,17.544281,17.281082,17.544281,17.271706,17.45047,17.271706,17.45047</ss:stroke><ss:stroke color="rgb(8, 8, 8)" strokewidth="0.254">3.3961792,22.582413,3.3961792,22.573029,3.4993744,22.49797,3.5744324,22.44168,3.6119537,22.432297,3.630722,22.451065,3.6870117,22.488602,3.7620697,22.507355,3.8558807,22.507355,4.052902,22.507355,4.2686768,22.507355,4.606415,22.507355,5.0473633,22.507355,5.582115,22.507355,6.2106934,22.507355,6.8486404,22.526108,7.4396896,22.544891,7.965065,22.544891,8.499817,22.544891,9.025192,22.544891,9.522423,22.563644,10.010277,22.619934,10.498123,22.638702,10.948441,22.657455,11.436295,22.676239,11.914757,22.694992,12.402603,22.694992,12.881073,22.694992,13.312637,22.71376,13.6597595,22.77005,14.006882,22.807587,14.36338,22.807587,14.766792,22.807587,15.160828,22.798187,15.517326,22.751282,15.761253,22.751282,15.864456,22.751282,15.948883,22.77005,16.023941,22.788818,16.164665,22.807587,16.30539,22.807587,16.455498,22.807587,16.549316,22.807587,16.633743,22.807587,16.718185,22.82634,16.755707,22.845093,16.755707,22.845093</ss:stroke><ss:stroke color="rgb(8, 8, 8)" strokewidth="0.254">10.582558,22.845093,10.582558,22.82634,10.601318,22.798187,10.601318,22.798187,10.5731735,22.948303,10.516884,23.182861,10.498123,23.398651,10.498123,23.539368,10.488739,23.755157,10.479355,23.867737,10.479355,23.970947,10.460602,24.074142,10.479355,24.130432,10.563797,24.130432,10.713898,24.10228,10.929672,24.055374,11.070404,24.036621,11.220512,24.036621,11.370621,24.055374,11.567635,24.09291,11.895996,24.11168,12.22435,24.130432,12.580856,24.1492,12.946747,24.1492,13.293869,24.1492,13.565933,24.1492,13.800476,24.186722,14.110077,24.20549,14.400909,24.224258,14.701118,24.243027,14.97319,24.280548,15.235878,24.31807,15.470421,24.31807,15.592384,24.31807,15.69558,24.31807,15.836311,24.31807,15.986412,24.31807,16.13652,24.336838,16.211578,24.336838,16.286629,24.336838,16.32415,24.336838,16.361687,24.336838,16.399208,24.336838,16.417969,24.336838,16.436737,24.336838,16.436737,24.336838,16.436737,24.336838,16.436737,24.327469,16.436737,24.299316,16.436737,24.25241,16.436737,24.177338,16.436737,24.11168,16.436737,24.027237,16.436737,23.933426,16.455498,23.8396,16.455498,23.727005,16.455498,23.605042,16.455498,23.492462,16.511787,23.389267,16.511787,23.267303,16.530548,23.145325,16.530548,23.051514,16.483643,22.98584,16.427353,22.910782,16.389824,22.873245,16.371063,22.835724,16.333534,22.835724,16.32415,22.835724,16.32415,22.835724</ss:stroke></ss:strokes><g stroke="rgb(8, 8, 8)" stroke-width="0.254" fill="none"><path d = "M 3.0396729 0.8256073 L 3.0396729 0.8256073 2.973999 0.8256073 2.9083328 0.92881775 2.8520355 1.1164551 2.80513 1.3134766 2.7769852 1.5292664 2.7300797 1.8670044 2.6174927 2.3454895 2.4017181 3.002243 2.2891388 3.7621765 2.1577911 4.606552 2.06398 5.5166016 1.9701614 6.511093 1.8857269 7.449295 1.7919083 8.312439 1.6887054 9.213104 1.566742 10.104385 1.4354095 11.033203 1.3228302 11.886963 1.2477722 12.750107 1.1914825 13.519424 1.1539612 14.30751 1.0882797 15.123749 0.99446106 15.911835 0.9381714 16.69992 0.8818817 17.487991 0.8537445 18.276093 0.7786865 19.04541 0.70363617 19.711533 0.60043335 20.377655 0.51599884 21.109451 0.45970917 21.888138 0.42218018 22.704376 0.42218018 23.529999 0.42218018 24.31807 0.39404297 25.143692 0.33774567 25.931778 0.281456 26.65419 0.20640564 27.357834 0.15011597 28.03334 0.08444214 28.661926 0.046913147 29.149796 0.009384155 29.403107 0.0 29.393723 0.0 29.393723 " /></g><g stroke="rgb(8, 8, 8)" stroke-width="0.254" fill="none"><path d = "M 2.9927673 0.5253906 L 2.9927673 0.5066223 2.9927673 0.48786926 3.0302963 0.48786926 3.0865784 0.562912 3.1897812 0.58169556 3.461853 0.54415894 3.790207 0.43156433 4.193619 0.318985 4.643944 0.22517395 5.1036453 0.19702148 5.61026 0.2157898 6.2200623 0.27207947 6.867401 0.27207947 7.51474 0.25331116 8.133942 0.22517395 8.706223 0.22517395 9.194061 0.28146362 9.71006 0.30021667 10.226051 0.29084778 10.695137 0.28146362 11.145462 0.28146362 11.605164 0.28146362 12.074249 0.28146362 12.571472 0.28146362 13.106232 0.28146362 13.575317 0.27207947 13.997498 0.29084778 14.41967 0.32836914 14.841843 0.34713745 15.254639 0.3846588 15.629906 0.40342712 15.967651 0.44096375 16.286629 0.4597168 16.699425 0.4784851 16.990257 0.4784851 17.496864 0.4784851 17.8909 0.4784851 18.247398 0.4784851 18.566383 0.4784851 18.829063 0.4784851 19.176186 0.4784851 19.49517 0.4784851 19.823524 0.49725342 20.104973 0.5347748 20.33014 0.60983276 20.545914 0.6286011 20.77108 0.6192169 21.061913 0.562912 21.21202 0.5347748 21.371506 0.5347748 21.45594 0.5347748 21.53099 0.5347748 21.615433 0.5066223 21.690483 0.5066223 21.728012 0.5066223 21.728012 0.5066223 21.681099 0.5066223 21.56852 0.5253906 21.56852 0.5253906 " /></g><g stroke="rgb(8, 8, 8)" stroke-width="0.254" fill="none"><path d = "M 21.925026 0.2345581 L 21.925026 0.2345581 21.962555 0.17826843 21.981316 0.16888428 21.971931 0.243927 21.95317 0.44096375 21.981316 0.6473541 22.187714 0.7693329 22.431633 0.8631439 22.713089 0.9663391 22.957008 1.0789337 23.191559 1.2290344 23.444862 1.3791504 23.72631 1.510498 23.970238 1.6230774 24.298592 1.7262878 24.551903 1.8107147 24.786438 1.9139252 24.936546 2.0265045 25.049133 2.1390839 25.086655 2.1953888 25.124184 2.2329102 25.124184 2.2329102 25.124184 2.2516785 25.124184 2.2891998 25.086655 2.3267365 25.086655 2.4205627 25.049133 2.6269531 25.020988 2.842743 24.955315 3.0772858 24.908401 3.415039 24.880257 3.7058716 24.880257 4.0061035 24.861496 4.353241 24.842735 4.68161 24.842735 4.981827 24.861496 5.225754 24.861496 5.4978333 24.833351 5.8262177 24.786438 6.1639557 24.748917 6.417282 24.739532 6.5204773 24.739532 6.576767 24.739532 6.6330566 24.795822 6.670578 24.852112 6.670578 24.842735 6.670578 24.842735 6.6893463 24.842735 6.6893463 24.842735 6.6893463 24.899025 6.726883 24.917786 6.745636 25.00222 6.7831726 25.086655 6.8394623 25.171097 6.895752 25.283669 6.97081 25.433777 7.055252 25.649559 7.149063 25.762138 7.2335052 25.893486 7.3367004 26.006065 7.4398956 26.212456 7.533737 26.512672 7.590027 26.803505 7.6650696 27.038048 7.758896 27.244446 7.871475 27.38517 7.9653015 27.535278 8.059113 27.69477 8.162323 27.91993 8.274902 28.135704 8.40625 28.276436 8.518829 28.360863 8.62204 28.445305 8.706482 28.520363 8.762772 28.576645 8.847214 28.651703 8.903503 28.736137 8.959778 28.801811 9.016083 28.876862 9.091141 28.980057 9.166199 29.036346 9.222488 29.073875 9.278778 29.111404 9.335068 29.130165 9.410126 29.148933 9.522705 29.148933 9.6259 29.148933 9.776016 29.148933 9.982422 29.148933 10.207596 29.13955 10.451523 29.10202 10.8267975 29.073875 11.211456 29.036346 11.586746 29.02697 11.97139 28.98944 12.356064 28.923775 12.759491 28.876862 13.125381 28.811188 13.481903 28.773666 13.791504 28.726753 14.119873 28.679848 14.457626 28.614174 14.804749 28.5485 15.16127 28.501595 15.499023 28.454681 15.799255 28.407776 16.146378 28.360863 16.493515 28.342102 16.859406 28.342102 17.206543 28.342102 17.516144 28.276436 17.853897 28.210762 18.219788 28.173233 18.585693 28.163849 18.914062 28.126328 19.204895 28.088799 19.523895 28.05127 19.880402 28.01374 20.311966 27.95745 20.771683 27.891777 21.203262 27.854256 21.578537 27.816734 21.91629 27.788582 22.291565 27.760437 22.676239 27.741676 23.070282 27.722916 23.436172 27.69477 23.773926 27.685387 24.083527 27.676003 24.336838 27.657242 24.637054 27.657242 24.937286 27.657242 25.246887 27.657242 25.490814 27.657242 25.762894 27.657242 26.034988 27.600952 26.278915 27.572807 26.49469 27.544662 26.748001 27.544662 27.048233 27.544662 27.29216 27.535278 27.517334 27.535278 27.667435 27.525902 27.901993 27.507133 28.098999 27.469612 28.30542 27.450844 28.511826 27.450844 28.7276 27.450844 28.877716 27.44146 29.187317 27.422699 29.440628 27.357025 29.778381 27.338264 30.012924 27.31012 30.134903 27.300735 30.32254 27.225685 30.697815 27.150627 31.06372 27.103722 31.270111 27.047432 31.34517 27.009903 31.1763 27.000526 31.073105 27.000526 31.073105 " /></g><g stroke="rgb(8, 8, 8)" stroke-width="0.254" fill="none"><path d = "M 0.30021667 28.952774 L 0.318985 28.934006 0.318985 28.924622 0.318985 28.924622 0.281456 28.99968 0.23454285 29.112259 0.23454285 29.328049 0.25331116 29.562592 0.27207947 29.825287 0.29083252 30.172424 0.29083252 30.435135 0.27207947 30.679047 0.27207947 30.791626 0.42218018 30.829163 0.5910492 30.829163 0.84436035 30.829163 1.107048 30.829163 1.4260254 30.829163 1.7825317 30.829163 2.2140808 30.829163 2.7769852 30.829163 3.3117447 30.829163 3.8840332 30.829163 4.4844513 30.819778 5.028595 30.810394 5.544586 30.810394 6.051201 30.876068 6.5578156 30.932373 7.1207123 30.932373 7.692993 30.922974 8.2558975 30.90422 8.724976 30.90422 9.08149 30.96051 9.419228 31.0168 9.794495 31.073105 10.216675 31.110626 10.6107025 31.129395 10.985977 31.148148 11.361237 31.148148 11.736511 31.148148 12.139923 31.166916 12.5527115 31.223206 12.974884 31.3264 13.397064 31.382706 13.819244 31.438995 14.241417 31.438995 14.719879 31.438995 15.217117 31.420227 15.686203 31.420227 16.11776 31.438995 16.511787 31.495285 16.868294 31.532806 17.290474 31.532806 17.750168 31.532806 18.200493 31.532806 18.556992 31.532806 18.810303 31.551575 19.026085 31.551575 19.223099 31.532806 19.448257 31.514053 19.710953 31.495285 19.945488 31.4859 20.067451 31.4859 20.123741 31.4859 20.18003 31.4859 20.255081 31.4859 20.367668 31.50467 20.574059 31.50467 20.677261 31.523438 20.77108 31.54219 20.82737 31.54219 20.84613 31.560959 20.84613 31.579727 20.836746 31.59848 20.78984 31.636017 20.77108 31.692307 20.77108 31.692307 20.78984 31.692307 20.82737 31.692307 20.883652 31.664154 20.90242 31.654785 20.95871 31.645386 21.061913 31.60788 21.277687 31.570343 21.521614 31.50467 21.812447 31.438995 22.131424 31.382706 22.487923 31.3264 22.900719 31.260742 23.351044 31.195053 23.83889 31.110626 24.270454 31.0168 24.626953 30.913605 24.936546 30.810394 25.161705 30.7072 25.386871 30.613373 25.649559 30.500793 25.884102 30.416351 25.97792 30.360062 25.97792 30.360062 " /></g><g stroke="rgb(8, 8, 8)" stroke-width="0.254" fill="none"><path d = "M 21.943794 0.0 L 21.943794 0.0 21.887497 0.028137207 21.859352 0.22517395 21.840591 0.43156433 21.831207 0.6755066 21.831207 0.92881775 21.82183 1.3134766 21.746773 1.8107147 21.652954 2.4487 21.58728 3.161728 21.549759 3.809082 21.512238 4.4470673 21.465324 5.160095 21.39965 5.8825073 21.333977 6.6799774 21.277687 7.4023895 21.230782 8.077881 21.183868 8.772156 21.155724 9.428894 21.136963 10.0199585 21.118202 10.620392 21.099434 11.27713 21.090057 11.858826 21.090057 12.440506 21.090057 13.03157 21.061913 13.62262 21.015007 14.213684 20.968094 14.767227 20.930565 15.330139 20.921188 15.883682 20.921188 16.48413 20.921188 17.093948 20.893044 17.600586 20.855515 18.116592 20.799225 18.670135 20.724167 19.204895 20.658493 19.702148 20.592827 20.161865 20.545914 20.640335 20.527153 21.071915 20.527153 21.494095 20.508385 21.944427 20.423958 22.451065 20.311378 22.910782 20.264465 23.332962 20.208176 23.727005 20.170647 24.121063 20.086212 24.524475 19.992401 24.965439 19.936104 25.359467 19.879814 25.69722 19.79538 26.063126 19.729706 26.466553 19.6828 26.888748 19.66404 27.320297 19.635887 27.695587 19.551453 28.136536 19.504547 28.389847 19.457634 28.765121 19.43888 29.018448 19.429497 29.337433 19.410736 29.712708 19.391968 29.937866 19.354439 30.16304 19.326294 30.37883 19.29815 30.632141 19.270004 30.951126 19.270004 31.12001 19.270004 31.241959 19.270004 31.3358 19.260628 31.420227 19.232475 31.50467 19.194954 31.54219 19.11052 31.532806 19.054222 31.420227 19.054222 31.420227 " /></g><g stroke="rgb(8, 8, 8)" stroke-width="0.254" fill="none"><path d = "M 1.3603516 30.801025 L 1.3603516 30.791626 1.3603516 30.791626 1.3415833 30.810394 1.3228302 30.885468 1.3040619 30.988663 1.2946777 31.204453 1.2946777 31.44838 1.3697357 31.729828 1.4823151 32.020676 1.5948944 32.349045 1.6324158 32.658646 1.6511841 32.902573 1.6699524 33.127747 1.7262421 33.212173 1.8200531 33.230957 1.9701614 33.230957 2.1765594 33.221573 2.3172836 33.221573 2.5142975 33.259094 2.7207031 33.296616 2.8708038 33.315384 3.1147308 33.315384 3.4524689 33.315384 3.7714462 33.334152 4.0998077 33.334152 4.4281616 33.334152 4.690857 33.334152 4.962921 33.352905 5.197464 33.371674 5.338188 33.40921 5.4226227 33.40921 5.4789124 33.40921 5.544586 33.40921 5.600876 33.40921 5.638405 33.40921 5.638405 33.324768 5.638405 33.1559 5.638405 32.92134 5.6290283 32.677414 5.619644 32.433487 5.619644 32.170776 5.6571655 31.992523 5.713455 31.936234 5.769745 31.964386 5.844803 32.06758 5.947998 32.152023 6.1544037 32.208313 6.3795624 32.227066 6.595337 32.264603 6.8298798 32.28337 7.0925674 32.30214 7.3927765 32.30214 7.768051 32.30214 8.152702 32.292755 8.481064 32.292755 8.715599 32.349045 8.959526 32.405334 9.203453 32.405334 9.550568 32.405334 9.888313 32.405334 10.216675 32.405334 10.488739 32.442856 10.704521 32.499146 10.929672 32.55545 11.154846 32.574203 11.370621 32.592987 11.577011 32.61174 11.811562 32.61174 12.046097 32.61174 12.299408 32.61174 12.543335 32.583588 12.768494 32.55545 12.9655075 32.536682 13.1719055 32.527298 13.312637 32.527298 13.509644 32.527298 13.716049 32.546066 13.894295 32.546066 14.006882 32.564835 14.044403 32.583588 14.063171 32.639893 14.100693 32.714935 14.100693 32.874435 14.119461 33.015167 14.119461 33.212173 14.119461 33.456116 14.138222 33.709427 14.203888 33.972122 14.260185 34.178528 14.353996 34.26297 14.504105 34.30049 14.644836 34.30049 14.851227 34.26297 15.08577 34.216064 15.310936 34.15976 15.50795 34.10347 15.629906 34.084717 15.733101 34.084717 15.864456 34.084717 16.023941 34.084717 16.089615 34.10347 16.164665 34.141006 16.220955 34.178528 16.277245 34.19728 16.352295 34.15976 16.427353 34.037796 16.511787 33.822006 16.586845 33.52179 16.643135 33.26848 16.718185 33.1559 16.755707 33.127747 16.82138 33.090225 16.9152 33.04332 16.999634 32.949493 17.055923 32.874435 17.055923 32.855667 17.074692 32.855667 17.074692 32.855667 17.130974 32.855667 17.187271 32.855667 17.26233 32.855667 17.33738 32.855667 17.39367 32.855667 17.43119 32.855667 17.43119 32.855667 17.449959 32.874435 17.449959 32.89319 17.46872 32.89319 17.506248 32.911972 17.543777 32.911972 17.581299 32.930725 17.581299 32.930725 17.581299 32.949493 17.581299 32.949493 17.600067 32.96826 17.618828 32.987015 17.693886 32.987015 17.768936 32.987015 17.919044 32.987015 18.069153 32.96826 18.219254 32.949493 18.369362 32.949493 18.585136 32.949493 18.838448 32.94011 19.101135 32.911972 19.354439 32.89319 19.58899 32.89319 19.842293 32.89319 20.076828 32.89319 20.414574 32.88382 20.696022 32.88382 20.949333 32.902573 21.165108 32.92134 21.371506 32.92134 21.62481 32.92134 21.878113 32.92134 22.131424 32.92134 22.375343 32.92134 22.61927 32.92134 22.938248 32.92134 23.257225 32.911972 23.585587 32.902573 23.85765 32.88382 23.998383 32.874435 24.101578 32.86505 24.195396 32.86505 24.289207 32.86505 24.37365 32.92134 24.42994 33.005783 24.4487 33.165268 24.4487 33.352905 24.4487 33.50302 24.4487 33.66252 24.467468 33.79387 24.551903 33.83139 24.739532 33.83139 24.92717 33.79387 25.114807 33.71881 25.255524 33.643753 25.358727 33.55931 25.490067 33.456116 25.59327 33.362305 25.705849 33.240326 25.818428 33.090225 25.912247 32.88382 26.006065 32.76184 26.043594 32.55545 26.043594 32.31151 26.081116 32.058212 26.156166 31.879944 26.174934 31.767365 26.193703 31.664154 26.249985 31.551575 26.287514 31.429611 26.325043 31.28888 26.343803 31.204453 26.325043 31.157532 26.325043 31.12001 26.325043 31.091858 26.306274 31.06372 26.27813 31.026184 26.268753 30.979279 26.259369 30.932373 26.249985 30.913605 26.22184 30.913605 26.212456 30.913605 26.20308 30.932373 26.20308 30.932373 26.20308 31.007416 26.20308 31.026184 26.20308 31.026184 " /></g><g stroke="rgb(8, 8, 8)" stroke-width="0.254" fill="none"><path d = "M 22.441025 22.601181 L 22.441025 22.601181 22.394112 22.591797 22.394112 22.591797 22.384727 22.666855 22.347206 22.82634 22.30967 23.060883 22.262772 23.389267 22.215858 23.73639 22.187714 24.167969 22.187714 24.627686 22.187714 25.068634 22.150185 25.53772 22.075134 26.044357 22.018845 26.588516 21.981316 27.048233 21.934402 27.479797 21.887497 27.864456 21.849976 28.24913 21.840591 28.633774 21.840591 29.0466 21.831207 29.41249 21.793686 29.665802 21.765541 29.815918 21.718628 30.012924 21.690483 30.16304 21.671722 30.360062 21.662338 30.510178 21.662338 30.65091 21.652954 30.74472 21.652954 30.819778 21.652954 30.894836 21.643578 30.988663 21.62481 31.091858 21.596664 31.195053 21.577904 31.251358 21.577904 31.251358 21.652954 31.148148 21.671722 31.06372 21.671722 31.0168 21.671722 31.0168 " /></g><g stroke="rgb(8, 8, 8)" stroke-width="0.254" fill="none"><path d = "M 23.163414 22.694992 L 23.163414 22.685608 23.163414 22.704376 23.163414 22.723145 23.15403 22.788818 23.1165 22.929535 23.09774 23.126572 23.078972 23.314209 23.060211 23.539368 23.032066 23.89589 22.975777 24.42128 22.938248 24.993576 22.910103 25.52835 22.872574 26.025589 22.8069 26.532227 22.713089 27.038849 22.638031 27.536087 22.591125 28.023956 22.572365 28.502426 22.54422 28.952774 22.54422 29.318665 22.516075 29.62828 22.487923 29.947266 22.441025 30.275635 22.394112 30.641525 22.375343 30.932373 22.375343 31.044952 22.394112 31.06372 22.469162 30.96051 22.41288 30.90422 22.41288 30.90422 " /></g><g stroke="rgb(8, 8, 8)" stroke-width="0.254" fill="none"><path d = "M 24.223541 23.09842 L 24.223541 23.060883 24.223541 23.023361 24.223541 23.023361 24.223541 23.060883 24.223541 23.164093 24.223541 23.24852 24.204773 23.35173 24.167252 23.558136 24.110954 23.802063 24.017143 24.20549 23.960854 24.740265 23.923325 25.27504 23.913948 25.791046 23.885796 26.307053 23.85765 26.813675 23.801361 27.282776 23.72631 27.723724 23.641876 28.098999 23.59497 28.464905 23.557442 28.915253 23.538673 29.281143 23.529297 29.496933 23.510529 29.731476 23.501152 29.975403 23.463623 30.219345 23.444862 30.435135 23.444862 30.500793 23.444862 30.557083 23.482384 30.425735 23.501152 30.341293 23.501152 30.341293 " /></g><g stroke="rgb(8, 8, 8)" stroke-width="0.254" fill="none"><path d = "M 25.199234 22.798187 L 25.199234 22.798187 25.293053 22.694992 25.311813 22.666855 25.293053 22.741898 25.246147 22.938934 25.208618 23.173477 25.18985 23.501846 25.152328 23.886505 25.114807 24.346222 25.077278 24.852844 25.030365 25.340714 24.98346 25.837952 24.94593 26.353973 24.88964 26.851212 24.852112 27.329681 24.823967 27.789413 24.795822 28.19284 24.777061 28.568115 24.748917 28.905853 24.702003 29.262375 24.664482 29.553223 24.655098 29.712708 24.655098 29.919113 24.63633 30.153656 24.617577 30.416351 24.608192 30.613373 24.608192 30.697815 24.608192 30.697815 24.608192 30.53833 24.608192 30.53833 " /></g><g stroke="rgb(8, 8, 8)" stroke-width="0.254" fill="none"><path d = "M 26.428238 23.079666 L 26.428238 23.079666 26.428238 23.013977 26.409477 23.013977 26.400093 23.013977 26.381332 23.070282 26.353188 23.173477 26.287514 23.398651 26.22184 23.670715 26.165558 24.10228 26.090492 24.68396 26.01545 25.284424 25.97792 25.809814 25.949776 26.297668 25.912247 26.729248 25.874718 27.160812 25.837189 27.60176 25.818428 27.995804 25.799667 28.408615 25.762138 28.77452 25.696472 29.112259 25.63079 29.421875 25.59327 29.69394 25.583885 29.95665 25.583885 30.191193 25.583885 30.341293 25.583885 30.48204 25.565125 30.519547 25.565125 30.519547 25.565125 30.519547 " /></g><g stroke="rgb(8, 8, 8)" stroke-width="0.254" fill="none"><path d = "M 27.084953 22.816956 L 27.0662 22.816956 26.991135 22.835724 26.981758 22.892029 26.953613 22.98584 26.934853 23.145325 26.925468 23.286057 26.925468 23.548752 26.906708 23.877121 26.878563 24.308685 26.859795 24.74965 26.803505 25.096786 26.77536 25.303177 26.737831 25.631561 26.728455 25.866104 26.728455 26.081894 26.728455 26.33519 26.728455 26.579132 26.728455 26.785538 26.728455 27.010696 26.70031 27.23587 26.681541 27.45166 26.681541 27.592377 26.681541 27.742508 26.681541 27.958282 26.681541 28.183441 26.681541 28.389847 26.66278 28.539963 26.64402 28.67131 26.634636 28.877716 26.634636 28.99968 26.625252 29.112259 26.587723 29.243607 26.550201 29.374954 26.540817 29.487534 26.522057 29.562592 26.512672 29.62828 26.484528 29.787766 26.484528 29.872208 26.484528 29.947266 26.503296 29.947266 26.503296 29.815918 26.503296 29.815918 " /></g><g stroke="rgb(8, 8, 8)" stroke-width="0.254" fill="none"><path d = "M 4.6345673 3.6026764 L 4.6720886 3.6026764 4.690857 3.6026764 4.690857 3.6026764 4.6720886 3.658966 4.6345673 3.7621765 4.615799 3.9122925 4.606415 4.137451 4.606415 4.4001465 4.606415 4.7941895 4.521988 5.2632904 4.44693 5.779297 4.3906403 6.351593 4.3249664 6.895752 4.278061 7.3367004 4.278061 7.8151855 4.278061 8.340591 4.2499084 8.865967 4.1560974 9.353836 4.0998077 9.804169 4.0622787 10.27327 4.0247498 10.742371 3.9403152 11.370956 3.9027863 11.840042 3.8840332 12.29039 3.874649 12.759491 3.8183594 13.181671 3.7620697 13.62262 3.7151566 14.007294 3.6682434 14.401321 3.6119537 14.79538 3.555664 15.226944 3.5462875 15.620987 3.5462875 15.949356 3.5462875 16.183899 3.5369034 16.559189 3.4712372 17.000137 3.4055634 17.39418 3.377411 17.628723 3.377411 17.741318 3.4149399 17.76007 3.4524689 17.713165 3.4524689 17.459854 3.4524689 17.459854 " /></g><g stroke="rgb(8, 8, 8)" stroke-width="0.254" fill="none"><path d = "M 4.4000244 3.640213 L 4.4187775 3.6120605 4.4938354 3.5557709 4.606415 3.480713 4.718994 3.4056702 4.9160156 3.3493652 5.122406 3.321228 5.375717 3.321228 5.685318 3.321228 6.0699615 3.321228 6.5109024 3.321228 6.979988 3.339981 7.430313 3.3587494 7.8712463 3.3775177 8.330948 3.3775177 8.809418 3.3962708 9.240974 3.3962708 9.663147 3.3775177 10.085327 3.339981 10.469971 3.3024597 10.79834 3.2930756 11.136078 3.2930756 11.464432 3.2930756 11.830322 3.3118439 12.233734 3.330597 12.5902405 3.3493652 12.890457 3.3493652 13.134384 3.3493652 13.340775 3.3681335 13.603455 3.4056702 13.950584 3.4056702 14.250793 3.4056702 14.522873 3.4056702 14.757416 3.4056702 14.945045 3.4244232 15.142059 3.4431763 15.442276 3.4619446 15.686203 3.480713 15.930122 3.4994812 16.155281 3.4994812 16.277245 3.4994812 16.483643 3.5182343 16.718185 3.5182343 16.952728 3.5557709 17.16851 3.574524 17.26233 3.574524 17.35614 3.574524 17.449959 3.574524 17.590683 3.574524 17.731407 3.574524 17.862755 3.5933075 17.94719 3.6120605 17.98471 3.6308289 18.041008 3.649582 18.097298 3.6683502 18.134819 3.6871185 18.15358 3.7058716 18.15358 3.7434082 18.15358 3.809082 18.15358 3.959198 18.144203 4.203125 18.125435 4.5408783 18.07853 4.8692474 18.02224 5.235138 17.994095 5.610428 17.956566 6.0795135 17.919044 6.6236725 17.862755 7.1209106 17.815842 7.5993958 17.768936 8.049744 17.731407 8.537598 17.665741 9.006699 17.600067 9.494553 17.543777 9.89798 17.52501 10.292023 17.52501 10.667297 17.52501 11.014435 17.515633 11.370956 17.515633 11.605499 17.515633 11.933884 17.487488 12.2341 17.449959 12.571854 17.421814 12.881454 17.403046 13.14415 17.384285 13.416229 17.346756 13.660156 17.33738 13.894699 17.327995 14.091736 17.327995 14.298126 17.318611 14.448242 17.29985 14.607742 17.271706 14.804749 17.26233 15.011154 17.26233 15.114365 17.26233 15.292618 17.26233 15.423965 17.24356 15.574081 17.215416 15.686661 17.206032 15.846161 17.206032 15.930603 17.206032 16.080704 17.187271 16.23082 17.16851 16.3434 17.159126 16.521667 17.149742 16.606094 17.140366 16.75621 17.121597 16.887558 17.11222 17.037659 17.102837 17.18779 17.102837 17.33789 17.084068 17.45047 17.074692 17.534912 17.074692 17.55368 17.084068 17.459854 17.084068 17.431717 17.084068 17.431717 " /></g><g stroke="rgb(8, 8, 8)" stroke-width="0.254" fill="none"><path d = "M 3.0396729 16.981369 L 3.0396729 16.981369 3.0209122 17.018906 3.0865784 17.037659 3.3023605 17.056442 3.5275269 17.056442 3.83712 17.056442 4.2499084 17.018906 4.718994 17.000137 5.281906 16.962616 5.8072815 16.943848 6.3138885 16.981369 6.8486404 17.000137 7.3927765 17.018906 7.9838257 17.018906 8.574875 17.009521 9.090866 17.000137 9.578712 17.000137 10.038422 17.000137 10.507507 17.018906 10.967209 17.018906 11.464432 17.018906 11.96167 17.018906 12.440132 17.018906 13.031174 17.037659 13.453354 17.056442 13.744186 17.075195 14.194504 17.093948 14.55101 17.093948 14.916901 17.093948 15.273407 17.093948 15.536095 17.093948 15.7706375 17.131485 16.014557 17.169006 16.267868 17.225296 16.474258 17.225296 16.577461 17.262833 16.69004 17.300354 16.840149 17.356644 16.980873 17.39418 17.130974 17.45047 17.26233 17.506775 17.327995 17.525528 17.346756 17.544281 17.281082 17.544281 17.271706 17.45047 17.271706 17.45047 " /></g><g stroke="rgb(8, 8, 8)" stroke-width="0.254" fill="none"><path d = "M 3.3961792 22.582413 L 3.3961792 22.573029 3.4993744 22.49797 3.5744324 22.44168 3.6119537 22.432297 3.630722 22.451065 3.6870117 22.488602 3.7620697 22.507355 3.8558807 22.507355 4.052902 22.507355 4.2686768 22.507355 4.606415 22.507355 5.0473633 22.507355 5.582115 22.507355 6.2106934 22.507355 6.8486404 22.526108 7.4396896 22.544891 7.965065 22.544891 8.499817 22.544891 9.025192 22.544891 9.522423 22.563644 10.010277 22.619934 10.498123 22.638702 10.948441 22.657455 11.436295 22.676239 11.914757 22.694992 12.402603 22.694992 12.881073 22.694992 13.312637 22.71376 13.6597595 22.77005 14.006882 22.807587 14.36338 22.807587 14.766792 22.807587 15.160828 22.798187 15.517326 22.751282 15.761253 22.751282 15.864456 22.751282 15.948883 22.77005 16.023941 22.788818 16.164665 22.807587 16.30539 22.807587 16.455498 22.807587 16.549316 22.807587 16.633743 22.807587 16.718185 22.82634 16.755707 22.845093 16.755707 22.845093 " /></g><g stroke="rgb(8, 8, 8)" stroke-width="0.254" fill="none"><path d = "M 10.582558 22.845093 L 10.582558 22.82634 10.601318 22.798187 10.601318 22.798187 10.5731735 22.948303 10.516884 23.182861 10.498123 23.398651 10.498123 23.539368 10.488739 23.755157 10.479355 23.867737 10.479355 23.970947 10.460602 24.074142 10.479355 24.130432 10.563797 24.130432 10.713898 24.10228 10.929672 24.055374 11.070404 24.036621 11.220512 24.036621 11.370621 24.055374 11.567635 24.09291 11.895996 24.11168 12.22435 24.130432 12.580856 24.1492 12.946747 24.1492 13.293869 24.1492 13.565933 24.1492 13.800476 24.186722 14.110077 24.20549 14.400909 24.224258 14.701118 24.243027 14.97319 24.280548 15.235878 24.31807 15.470421 24.31807 15.592384 24.31807 15.69558 24.31807 15.836311 24.31807 15.986412 24.31807 16.13652 24.336838 16.211578 24.336838 16.286629 24.336838 16.32415 24.336838 16.361687 24.336838 16.399208 24.336838 16.417969 24.336838 16.436737 24.336838 16.436737 24.336838 16.436737 24.336838 16.436737 24.327469 16.436737 24.299316 16.436737 24.25241 16.436737 24.177338 16.436737 24.11168 16.436737 24.027237 16.436737 23.933426 16.455498 23.8396 16.455498 23.727005 16.455498 23.605042 16.455498 23.492462 16.511787 23.389267 16.511787 23.267303 16.530548 23.145325 16.530548 23.051514 16.483643 22.98584 16.427353 22.910782 16.389824 22.873245 16.371063 22.835724 16.333534 22.835724 16.32415 22.835724 16.32415 22.835724 " /></g></svg>
